<?xml version="1.0" standalone="no"?>
<!DOCTYPE svg PUBLIC "-//W3C//DTD SVG 1.1//EN" "http://www.w3.org/Graphics/SVG/1.1/DTD/svg11.dtd" >
<svg xmlns="http://www.w3.org/2000/svg">
<metadata>Generated by IcoMoon</metadata>
<defs>
<font id="eg" horiz-adv-x="1024">
<font-face units-per-em="1024" ascent="960" descent="-64" />
<missing-glyph horiz-adv-x="1024" />
<glyph unicode="&#x20;" horiz-adv-x="512" d="" />
<glyph unicode="&#xe904;" glyph-name="hours-fill" d="M512.209 405.214c70.69 0 128-57.31 128-128 0-36.228-15.053-68.945-39.245-92.233l-81.498-78.417 120.742-0.017v-85.333h-256.001l-0.038 73.574 157.624 151.68c8.068 7.778 13.082 18.675 13.082 30.746 0 23.565-19.102 42.667-42.667 42.667s-42.667-19.102-42.667-42.667h-85.334c0 70.69 57.306 128 128.001 128zM768.209 405.214v-170.667h85.333v170.667h85.333v-384h-85.333v128h-170.667v256h85.333zM170.875 447.881c0-107.802 49.973-203.93 128.017-266.483l-0.016-103.104c-127.532 73.775-213.334 211.661-213.334 369.587h85.333zM512.209 874.547c221.239 0 403.149-168.389 424.559-383.995l-85.867-0.009c-20.996 168.379-164.629 298.671-338.692 298.671-105.126 0-199.151-47.523-261.764-122.258l91.097-91.075h-256v256l104.387-104.383c78.228 90.086 193.602 147.050 322.281 147.050z" />
<glyph unicode="&#xe907;" glyph-name="account-box-fill" d="M128 746.876c0 47.013 38.085 85.124 85.124 85.124h597.752c47.014 0 85.124-38.085 85.124-85.124v-597.752c0-47.014-38.084-85.124-85.124-85.124h-597.752c-47.013 0-85.124 38.084-85.124 85.124v597.752zM271.226 192h490.267c-53.973 77.376-143.642 128-245.133 128-101.494 0-191.163-50.624-245.134-128zM512 405.333c82.475 0 149.333 66.859 149.333 149.333s-66.859 149.333-149.333 149.333c-82.475 0-149.333-66.859-149.333-149.333s66.859-149.333 149.333-149.333z" />
<glyph unicode="&#xe908;" glyph-name="account-box-line" d="M128 746.876c0 47.013 38.085 85.124 85.124 85.124h597.752c47.014 0 85.124-38.085 85.124-85.124v-597.752c0-47.014-38.084-85.124-85.124-85.124h-597.752c-47.013 0-85.124 38.084-85.124 85.124v597.752zM213.333 746.667v-597.333h597.333v597.333h-597.333zM340.145 184.286c-26.397 11.43-51.412 25.451-74.723 41.745 53.201 82.223 145.715 136.636 250.938 136.636 102.37 0 192.713-51.503 246.524-130.014-22.882-16.913-47.518-31.595-73.583-43.716-38.754 53.555-101.781 88.397-172.941 88.397-73.203 0-137.792-36.868-176.215-93.047zM512 405.333c-82.475 0-149.333 66.859-149.333 149.333s66.859 149.333 149.333 149.333c82.475 0 149.333-66.859 149.333-149.333s-66.859-149.333-149.333-149.333zM512 490.667c35.345 0 64 28.655 64 64 0 35.346-28.655 64-64 64s-64-28.654-64-64c0-35.345 28.655-64 64-64z" />
<glyph unicode="&#xe909;" glyph-name="account-circle-fill" d="M512 874.667c235.52 0 426.667-191.147 426.667-426.667s-191.147-426.667-426.667-426.667c-235.52 0-426.667 191.147-426.667 426.667s191.147 426.667 426.667 426.667zM256.995 302.238c62.614-93.466 156.663-152.905 261.819-152.905s199.206 59.439 261.82 152.905c-68.591 63.962-160.636 103.095-261.82 103.095s-193.227-39.134-261.819-103.095zM512 490.667c70.694 0 128 57.308 128 128s-57.306 128-128 128c-70.694 0-128-57.308-128-128s57.306-128 128-128z" />
<glyph unicode="&#xe90a;" glyph-name="account-circle-line" d="M512 874.667c235.639 0 426.667-191.025 426.667-426.667 0-235.639-191.027-426.667-426.667-426.667-235.642 0-426.667 191.027-426.667 426.667 0 235.642 191.025 426.667 426.667 426.667zM518.814 277.333c-86.844 0-165.030-37.065-219.603-96.239 58.352-46.583 132.32-74.428 212.789-74.428 84.032 0 160.969 30.366 220.442 80.721-54.229 55.497-129.907 89.946-213.628 89.946zM512 789.333c-188.513 0-341.333-152.82-341.333-341.333 0-77.252 25.664-148.51 68.931-205.713 70.008 74.125 169.21 120.38 279.216 120.38 106.001 0 201.967-42.948 271.45-112.393 39.714 55.787 63.070 124.028 63.070 197.726 0 188.513-152.819 341.333-341.333 341.333zM512 746.667c94.255 0 170.667-76.41 170.667-170.667 0-94.255-76.412-170.667-170.667-170.667-94.257 0-170.667 76.412-170.667 170.667 0 94.257 76.41 170.667 170.667 170.667zM512 661.333c-47.13 0-85.333-38.205-85.333-85.333 0-47.13 38.204-85.333 85.333-85.333s85.333 38.204 85.333 85.333c0 47.128-38.204 85.333-85.333 85.333z" />
<glyph unicode="&#xe911;" glyph-name="add-circle-fill" d="M512 21.333c-235.642 0-426.667 191.027-426.667 426.667 0 235.642 191.025 426.667 426.667 426.667 235.639 0 426.667-191.025 426.667-426.667 0-235.639-191.027-426.667-426.667-426.667zM469.333 490.667h-170.667v-85.333h170.667v-170.667h85.333v170.667h170.667v85.333h-170.667v170.667h-85.333v-170.667z" />
<glyph unicode="&#xe912;" glyph-name="add-circle-line" d="M469.333 490.667v170.667h85.333v-170.667h170.667v-85.333h-170.667v-170.667h-85.333v170.667h-170.667v85.333h170.667zM512 21.333c-235.642 0-426.667 191.027-426.667 426.667 0 235.642 191.025 426.667 426.667 426.667 235.639 0 426.667-191.025 426.667-426.667 0-235.639-191.027-426.667-426.667-426.667zM512 106.667c188.514 0 341.333 152.819 341.333 341.333s-152.819 341.333-341.333 341.333c-188.513 0-341.333-152.82-341.333-341.333s152.82-341.333 341.333-341.333z" />
<glyph unicode="&#xe913;" glyph-name="add-fill" d="M469.333 490.667v256h85.333v-256h256v-85.333h-256v-256h-85.333v256h-256v85.333h256z" />
<glyph unicode="&#xe91b;" glyph-name="aed-electrodes-fill" d="M341.333 832c-23.564 0-42.667-19.103-42.667-42.667v-128h-128c-23.564 0-42.667-19.103-42.667-42.667v-512c0-23.565 19.103-42.667 42.667-42.667h213.333v-85.333h85.333v85.333h213.333c23.565 0 42.667 19.102 42.667 42.667v128h128c23.565 0 42.667 19.102 42.667 42.667v512c0 23.564-19.102 42.667-42.667 42.667h-512zM725.333 320v298.667c0 23.564-19.102 42.667-42.667 42.667h-298.667v85.333h426.667v-426.667h-85.333z" />
<glyph unicode="&#xe91c;" glyph-name="aed-electrodes-line" d="M298.667 789.333c0 23.564 19.103 42.667 42.667 42.667h512c23.565 0 42.667-19.103 42.667-42.667v-512c0-23.565-19.102-42.667-42.667-42.667h-128v-128c0-23.565-19.102-42.667-42.667-42.667h-213.333v-85.333h-85.333v85.333h-213.333c-23.564 0-42.667 19.102-42.667 42.667v512c0 23.564 19.103 42.667 42.667 42.667h128v128zM810.667 320v426.667h-426.667v-85.333h298.667c23.565 0 42.667-19.103 42.667-42.667v-298.667h85.333zM213.333 576v-426.667h426.667v426.667h-426.667z" />
<glyph unicode="&#xe91d;" glyph-name="aed-fill" d="M256 832c-70.692 0-128-57.308-128-128v-512c0-70.694 57.308-128 128-128h512c70.694 0 128 57.306 128 128v512c0 70.692-57.306 128-128 128h-512zM682.667 490.667l-213.333-298.667v213.333h-128l213.333 298.667v-213.333h128z" />
<glyph unicode="&#xe91e;" glyph-name="aed-line" d="M256 746.667c-23.564 0-42.667-19.103-42.667-42.667v-512c0-23.565 19.103-42.667 42.667-42.667h512c23.565 0 42.667 19.102 42.667 42.667v512c0 23.564-19.102 42.667-42.667 42.667h-512zM128 704c0 70.692 57.308 128 128 128h512c70.694 0 128-57.308 128-128v-512c0-70.694-57.306-128-128-128h-512c-70.692 0-128 57.306-128 128v512zM682.667 490.667h-128v213.333l-213.333-298.667h128v-213.333l213.333 298.667z" />
<glyph unicode="&#xe928;" glyph-name="alert-fill" d="M548.945 831.993l406.455-704.001c11.785-20.407 4.791-46.502-15.616-58.283-6.485-3.746-13.845-5.717-21.333-5.717h-812.91c-23.564 0-42.667 19.102-42.667 42.667 0 7.492 1.972 14.848 5.716 21.333l406.455 704.001c11.78 20.407 37.875 27.399 58.283 15.617 6.485-3.745 11.874-9.131 15.616-15.617zM469.329 277.325v-85.333h85.333v85.333h-85.333zM469.329 575.993v-213.335h85.333v213.335h-85.333z" />
<glyph unicode="&#xe929;" glyph-name="alert-line" d="M548.945 831.993l406.455-704.001c11.785-20.407 4.791-46.502-15.616-58.283-6.485-3.746-13.845-5.717-21.333-5.717h-812.91c-23.564 0-42.667 19.102-42.667 42.667 0 7.492 1.972 14.848 5.716 21.333l406.455 704.001c11.78 20.407 37.875 27.399 58.283 15.617 6.485-3.745 11.874-9.131 15.616-15.617zM179.442 149.325h665.106l-332.553 576.001-332.553-576.001zM469.329 277.325h85.333v-85.333h-85.333v85.333zM469.329 575.993h85.333v-213.335h-85.333v213.335z" />
<glyph unicode="&#xe92f;" glyph-name="align-center" d="M128 789.333h768v-85.333h-768v85.333zM213.333 149.333h597.333v-85.333h-597.333v85.333zM128 362.667h768v-85.333h-768v85.333zM213.333 576h597.333v-85.333h-597.333v85.333z" />
<glyph unicode="&#xe931;" glyph-name="align-item-bottom-line" d="M384 746.667v-426.667h-128v426.667h128zM213.333 832c-23.564 0-42.667-19.103-42.667-42.667v-512c0-23.565 19.103-42.667 42.667-42.667h213.333c23.565 0 42.667 19.102 42.667 42.667v512c0 23.564-19.102 42.667-42.667 42.667h-213.333zM640 576v-256h128v256h-128zM554.667 618.667c0 23.564 19.102 42.667 42.667 42.667h213.333c23.565 0 42.667-19.103 42.667-42.667v-341.333c0-23.565-19.102-42.667-42.667-42.667h-213.333c-23.565 0-42.667 19.102-42.667 42.667v341.333zM896 149.333h-768v-85.333h768v85.333z" />
<glyph unicode="&#xe94c;" glyph-name="android-line" d="M810.667 405.333h-597.333v-298.667h597.333v298.667zM810.667 490.667c0 164.949-133.717 298.667-298.667 298.667s-298.667-133.718-298.667-298.667h597.333zM272.312 790.694c65.693 52.55 149.021 83.972 239.688 83.972s173.995-31.423 239.689-83.972l62.012 62.011 60.339-60.34-62.012-62.011c52.548-65.693 83.972-149.021 83.972-239.688v-426.667c0-23.565-19.102-42.667-42.667-42.667h-682.667c-23.564 0-42.667 19.102-42.667 42.667v426.667c0 90.667 31.423 173.995 83.972 239.688l-62.011 62.011 60.34 60.34 62.011-62.011zM384 576c-23.564 0-42.667 19.103-42.667 42.667s19.103 42.667 42.667 42.667c23.564 0 42.667-19.103 42.667-42.667s-19.103-42.667-42.667-42.667zM640 576c-23.565 0-42.667 19.103-42.667 42.667s19.102 42.667 42.667 42.667c23.565 0 42.667-19.103 42.667-42.667s-19.102-42.667-42.667-42.667z" />
<glyph unicode="&#xe94e;" glyph-name="angularjs-line" d="M747.669 249.57l20.868 11.571 47.74 414.297-304.269 108.62-304.268-108.62 47.739-414.297 20.218-11.209 236.311 530.441 235.661-530.803zM700.783 223.573h-34.061l-49.865 124.587h-210.549l-49.866-124.587h-33.207l188.774-104.666 188.774 104.666zM512.009 874.667l396.8-141.653-60.523-525.227-336.277-186.453-336.279 186.453-60.521 525.227 396.8 141.653zM584.465 424.96l-72.457 174.507-72.457-174.507h144.913z" />
<glyph unicode="&#xe953;" glyph-name="apple-fill" d="M498.065 651.862c-37.376 0-95.233 42.496-156.161 40.96-80.384-1.024-154.112-46.592-195.584-118.784-83.456-144.897-21.504-358.913 59.904-476.673 39.936-57.344 87.040-121.856 149.504-119.808 59.904 2.56 82.433 38.912 155.137 38.912 72.192 0 92.672-38.912 156.16-37.376 64.512 1.024 105.472 58.368 144.896 116.224 45.568 66.56 64.512 131.072 65.536 134.656-1.536 0.512-125.44 48.128-126.976 191.488-1.024 119.809 97.792 177.153 102.4 179.713-56.32 82.432-142.848 91.648-173.056 93.696-78.848 6.144-144.896-43.008-181.76-43.008zM631.185 772.694c33.28 39.936 55.296 95.744 49.152 151.040-47.616-2.048-104.96-31.744-139.264-71.68-30.72-35.328-57.344-92.16-50.176-146.432 52.736-4.096 107.008 27.136 140.288 67.072z" />
<glyph unicode="&#xe954;" glyph-name="apple-line" d="M673.195 609.795c-20.169 1.571-41.839-3.26-75.021-15.904 2.786 1.062-31.667-12.419-41.327-15.791-21.406-7.473-39.027-11.572-58.782-11.572-19.554 0-37.585 3.907-58.266 10.886-6.63 2.237-13.297 4.712-21.545 7.933-3.537 1.382-16.335 6.461-19.133 7.557-27.654 10.83-43.215 14.91-56.13 14.591-49.177-0.627-95.713-29.026-122.726-76.049-55.129-95.714-24.603-268.74 55.984-385.314 42.906-61.606 66.391-83.627 75.836-83.324 9.485 0.41 16.46 2.415 33.437 9.613 3.378 1.438 3.378 1.438 7.097 3.025 42.91 18.283 72.951 26.355 118.246 26.355 43.563 0 72.657-7.923 113.843-25.681 3.78-1.634 3.78-1.634 7.172-3.093 16.969-7.27 23.091-8.866 33.788-8.61 15.253 0.239 34.078 17.818 75.84 79.104 11.435 16.704 21.542 34.257 30.31 52.028-5.641 4.655-11.243 9.604-16.725 14.827-54.993 52.416-89.007 123.085-89.941 210.355-0.593 69.141 22.025 129.034 60.139 178.395-15.774 6.134-33.169 9.383-52.096 10.668zM679.825 694.87c30.208-2.048 116.736-11.264 173.056-93.696-4.608-2.56-103.424-59.904-102.4-179.713 1.536-143.36 125.44-190.976 126.976-191.488-1.024-3.584-19.968-68.096-65.536-134.656-39.424-57.856-80.384-115.2-144.896-116.224-63.488-1.536-83.968 37.376-156.16 37.376-72.704 0-95.233-36.352-155.137-38.912-62.464-2.048-109.568 62.464-149.504 119.808-81.408 117.76-143.36 331.776-59.904 476.673 41.472 72.192 115.2 117.76 195.584 118.784 60.928 1.536 118.785-40.96 156.161-40.96 36.864 0 102.912 49.152 181.76 43.008zM631.185 772.694c-33.28-39.936-87.552-71.168-140.288-67.072-7.168 54.272 19.456 111.104 50.176 146.432 34.304 39.936 91.648 69.632 139.264 71.68 6.144-55.296-15.872-111.104-49.152-151.040z" />
<glyph unicode="&#xe955;" glyph-name="apps-2-add-fill" d="M106.667 661.333c0-106.039 85.961-192 192-192s192 85.961 192 192c0 106.039-85.961 192-192 192s-192-85.961-192-192zM106.667 234.667c0-106.039 85.961-192 192-192s192 85.961 192 192c0 106.039-85.961 192-192 192s-192-85.961-192-192zM533.333 234.667c0-106.039 85.961-192 192-192s192 85.961 192 192c0 106.039-85.961 192-192 192s-192-85.961-192-192zM682.667 490.667v128h-128v85.333h128v128h85.333v-128h128v-85.333h-128v-128h-85.333z" />
<glyph unicode="&#xe956;" glyph-name="apps-2-add-line" d="M106.667 661.333c0-106.039 85.961-192 192-192s192 85.961 192 192c0 106.039-85.961 192-192 192s-192-85.961-192-192zM106.667 234.667c0-106.039 85.961-192 192-192s192 85.961 192 192c0 106.039-85.961 192-192 192s-192-85.961-192-192zM533.333 234.667c0-106.039 85.961-192 192-192s192 85.961 192 192c0 106.039-85.961 192-192 192s-192-85.961-192-192zM405.333 661.333c0-58.91-47.756-106.667-106.667-106.667s-106.667 47.756-106.667 106.667c0 58.91 47.756 106.667 106.667 106.667s106.667-47.756 106.667-106.667zM405.333 234.667c0-58.91-47.756-106.667-106.667-106.667s-106.667 47.757-106.667 106.667c0 58.91 47.756 106.667 106.667 106.667s106.667-47.757 106.667-106.667zM832 234.667c0-58.91-47.757-106.667-106.667-106.667s-106.667 47.757-106.667 106.667c0 58.91 47.757 106.667 106.667 106.667s106.667-47.757 106.667-106.667zM682.667 490.667v128h-128v85.333h128v128h85.333v-128h128v-85.333h-128v-128h-85.333z" />
<glyph unicode="&#xe957;" glyph-name="apps-2-fill" d="M298.667 469.333c-106.039 0-192 85.961-192 192s85.961 192 192 192c106.039 0 192-85.961 192-192s-85.961-192-192-192zM298.667 42.667c-106.039 0-192 85.961-192 192s85.961 192 192 192c106.039 0 192-85.961 192-192s-85.961-192-192-192zM725.333 469.333c-106.039 0-192 85.961-192 192s85.961 192 192 192c106.039 0 192-85.961 192-192s-85.961-192-192-192zM725.333 42.667c-106.039 0-192 85.961-192 192s85.961 192 192 192c106.039 0 192-85.961 192-192s-85.961-192-192-192z" />
<glyph unicode="&#xe958;" glyph-name="apps-2-line" d="M298.667 469.333c-106.039 0-192 85.961-192 192s85.961 192 192 192c106.039 0 192-85.961 192-192s-85.961-192-192-192zM298.667 42.667c-106.039 0-192 85.961-192 192s85.961 192 192 192c106.039 0 192-85.961 192-192s-85.961-192-192-192zM725.333 469.333c-106.039 0-192 85.961-192 192s85.961 192 192 192c106.039 0 192-85.961 192-192s-85.961-192-192-192zM725.333 42.667c-106.039 0-192 85.961-192 192s85.961 192 192 192c106.039 0 192-85.961 192-192s-85.961-192-192-192zM298.667 554.667c58.91 0 106.667 47.756 106.667 106.667s-47.756 106.667-106.667 106.667c-58.91 0-106.667-47.756-106.667-106.667s47.756-106.667 106.667-106.667zM298.667 128c58.91 0 106.667 47.757 106.667 106.667s-47.756 106.667-106.667 106.667c-58.91 0-106.667-47.757-106.667-106.667s47.756-106.667 106.667-106.667zM725.333 554.667c58.91 0 106.667 47.756 106.667 106.667s-47.757 106.667-106.667 106.667c-58.91 0-106.667-47.756-106.667-106.667s47.757-106.667 106.667-106.667zM725.333 128c58.91 0 106.667 47.757 106.667 106.667s-47.757 106.667-106.667 106.667c-58.91 0-106.667-47.757-106.667-106.667s47.757-106.667 106.667-106.667z" />
<glyph unicode="&#xe959;" glyph-name="apps-fill" d="M288 853.333c100.148 0 181.333-81.186 181.333-181.333v-181.333h-181.333c-100.148 0-181.333 81.186-181.333 181.333s81.186 181.333 181.333 181.333zM288 405.333h181.333v-181.333c0-100.147-81.186-181.333-181.333-181.333s-181.333 81.186-181.333 181.333c0 100.147 81.186 181.333 181.333 181.333zM736 853.333c100.147 0 181.333-81.186 181.333-181.333s-81.186-181.333-181.333-181.333h-181.333v181.333c0 100.148 81.186 181.333 181.333 181.333zM554.667 405.333h181.333c100.147 0 181.333-81.186 181.333-181.333s-81.186-181.333-181.333-181.333c-100.147 0-181.333 81.186-181.333 181.333v181.333z" />
<glyph unicode="&#xe95a;" glyph-name="apps-line" d="M288 853.333c100.148 0 181.333-81.186 181.333-181.333v-181.333h-181.333c-100.148 0-181.333 81.186-181.333 181.333s81.186 181.333 181.333 181.333zM384 576v96c0 53.019-42.981 96-96 96s-96-42.981-96-96c0-53.019 42.981-96 96-96h96zM288 405.333h181.333v-181.333c0-100.147-81.186-181.333-181.333-181.333s-181.333 81.186-181.333 181.333c0 100.147 81.186 181.333 181.333 181.333zM288 320c-53.019 0-96-42.982-96-96s42.981-96 96-96c53.019 0 96 42.982 96 96v96h-96zM736 853.333c100.147 0 181.333-81.186 181.333-181.333s-81.186-181.333-181.333-181.333h-181.333v181.333c0 100.148 81.186 181.333 181.333 181.333zM736 576c53.018 0 96 42.981 96 96s-42.982 96-96 96c-53.018 0-96-42.981-96-96v-96h96zM554.667 405.333h181.333c100.147 0 181.333-81.186 181.333-181.333s-81.186-181.333-181.333-181.333c-100.147 0-181.333 81.186-181.333 181.333v181.333zM640 320v-96c0-53.018 42.982-96 96-96s96 42.982 96 96c0 53.018-42.982 96-96 96h-96z" />
<glyph unicode="&#xe95b;" glyph-name="app-store-fill" d="M512 874.667c235.639 0 426.667-191.025 426.667-426.667 0-235.639-191.027-426.667-426.667-426.667-235.642 0-426.667 191.027-426.667 426.667 0 235.642 191.025 426.667 426.667 426.667zM376.43 305.378c-16.834 20.326-37.772 27.605-63.086 21.705l-6.42-1.749-25.118-43.354c-9.635-16.862-3.957-38.366 12.903-48 15.455-8.832 34.813-4.8 45.353 8.922l2.647 3.981 33.72 58.496zM563.614 590.452c-20.817-17.204-41.809-68.131-12.386-118.883l129.719-224.687c9.805-16.862 31.138-22.537 48-12.902 15.454 8.99 21.513 27.665 14.993 43.699l-2.091 4.301-34.236 59.354h50.752c19.439 0 35.098 15.654 35.098 35.098 0 17.946-13.342 32.666-30.686 34.825l-4.412 0.273h-91.354l-93.572 162.022-9.826 16.901zM575.484 720.344c-15.454 8.832-34.812 4.797-45.355-8.923l-2.645-3.98-15.654-27.011-15.313 27.011c-9.805 16.86-31.138 22.537-48 12.903-15.454-8.989-21.513-27.664-14.997-43.701l2.095-4.299 35.785-62.107-114.581-198.537h-89.462c-19.441 0-35.097-15.654-35.097-35.098 0-17.946 13.34-32.666 30.683-34.825l4.414-0.273h319.141c14.545 27.298-2.586 66.082-34.573 69.892l-5.171 0.303h-108.902l150.537 260.645c9.634 16.861 3.959 38.366-12.902 48z" />
<glyph unicode="&#xe95c;" glyph-name="app-store-line" d="M512 874.667c235.639 0 426.667-191.025 426.667-426.667 0-235.639-191.027-426.667-426.667-426.667-235.642 0-426.667 191.027-426.667 426.667 0 235.642 191.025 426.667 426.667 426.667zM512 789.333c-188.513 0-341.333-152.82-341.333-341.333s152.82-341.333 341.333-341.333c188.514 0 341.333 152.819 341.333 341.333s-152.819 341.333-341.333 341.333zM376.43 305.378l-33.72-58.496c-9.635-16.862-31.14-22.537-48-12.902s-22.538 31.138-12.903 48l25.118 43.354c28.215 8.772 51.269 2.065 69.505-19.955zM563.614 590.452l103.398-178.923h91.354c19.439 0 35.098-15.659 35.098-35.098 0-19.443-15.659-35.098-35.098-35.098h-50.752l34.236-59.354c9.634-16.862 3.955-38.195-12.902-48-16.862-9.634-38.195-3.959-48 12.902l-129.719 224.687c-29.423 50.752-8.431 101.678 12.386 118.883zM575.484 720.344c16.862-9.634 22.537-31.139 12.902-48l-150.537-260.645h108.902c35.268 0 55.053-41.463 39.744-70.195h-319.141c-19.441 0-35.097 15.659-35.097 35.098 0 19.443 15.656 35.098 35.097 35.098h89.462l114.581 198.537-35.785 62.107c-9.635 16.861-3.959 38.194 12.902 48 16.862 9.635 38.195 3.957 48-12.903l15.313-27.011 15.654 27.011c9.634 16.86 31.138 22.537 48 12.903z" />
<glyph unicode="&#xe95d;" glyph-name="archive-2-fill" d="M938.667 106.667v554.667l-85.333 170.667h-682.667l-85.333-170.817v-554.516c0-23.565 19.103-42.667 42.667-42.667h768c23.565 0 42.667 19.102 42.667 42.667zM223.395 746.667h577.194l42.667-85.333h-662.484l42.624 85.333zM384 490.667h256v-85.333h-256v85.333z" />
<glyph unicode="&#xe95e;" glyph-name="archive-2-line" d="M938.667 106.667v554.667l-85.333 170.667h-682.667l-85.333-170.817v-554.516c0-23.565 19.103-42.667 42.667-42.667h768c23.565 0 42.667 19.102 42.667 42.667zM170.667 576h682.667v-426.667h-682.667v426.667zM223.403 746.667h577.195l42.667-85.333h-662.485l42.624 85.333zM640 490.667h-256v-85.333h256v85.333z" />
<glyph unicode="&#xe961;" glyph-name="archive-fill" d="M128 533.333h768v-426.854c0-23.462-18.982-42.479-42.385-42.479h-683.23c-23.409 0-42.385 18.978-42.385 42.479v426.854zM384 448v-85.333h256v85.333h-256zM85.333 789.341c0 23.56 19.427 42.659 42.317 42.659h768.7c23.373 0 42.317-18.932 42.317-42.659v-170.675h-853.333v170.675z" />
<glyph unicode="&#xe962;" glyph-name="archive-line" d="M128 533.333h-42.667v255.875c0 23.633 19.427 42.792 42.317 42.792h768.7c23.373 0 42.317-18.683 42.317-42.792v-255.875h-42.667v-426.731c0-23.531-18.982-42.603-42.385-42.603h-683.23c-23.409 0-42.385 19.093-42.385 42.603v426.731zM810.667 533.333h-597.333v-384h597.333v384zM170.667 746.667v-128h682.667v128h-682.667zM384 448h256v-85.333h-256v85.333z" />
<glyph unicode="&#xe96b;" glyph-name="arrow-down-double-line" d="M512 142.327l264.836 264.836-60.339 60.339-204.497-204.497-204.497 204.497-60.34-60.339 264.837-264.836zM512 383.39l264.836 264.835-60.339 60.34-204.497-204.497-204.497 204.497-60.34-60.34 264.837-264.835z" />
<glyph unicode="&#xe96d;" glyph-name="arrow-down-line" d="M554.671 270.012l228.864 228.864 60.339-60.339-331.87-331.87-331.869 331.87 60.34 60.339 228.862-228.864v519.322h85.333v-519.322z" />
<glyph unicode="&#xe96e;" glyph-name="arrow-down-s-fill" d="M512 277.333l-256 256h512l-256-256z" />
<glyph unicode="&#xe96f;" glyph-name="arrow-down-s-line" d="M511.996 398.020l211.191 211.188 60.339-60.34-271.531-271.531-271.527 271.531 60.34 60.34 211.187-211.188z" />
<glyph unicode="&#xe97e;" glyph-name="arrow-left-circle-fill" d="M512 874.667c235.52 0 426.667-191.147 426.667-426.667s-191.147-426.667-426.667-426.667c-235.52 0-426.667 191.147-426.667 426.667s191.147 426.667 426.667 426.667zM512 490.667v128l-170.667-170.667 170.667-170.667v128h170.667v85.333h-170.667z" />
<glyph unicode="&#xe97f;" glyph-name="arrow-left-circle-line" d="M512 874.667c235.52 0 426.667-191.147 426.667-426.667s-191.147-426.667-426.667-426.667c-235.52 0-426.667 191.147-426.667 426.667s191.147 426.667 426.667 426.667zM512 106.667c188.587 0 341.333 152.747 341.333 341.333s-152.747 341.333-341.333 341.333c-188.587 0-341.333-152.747-341.333-341.333s152.747-341.333 341.333-341.333zM512 490.667h170.667v-85.333h-170.667v-128l-170.667 170.667 170.667 170.667v-128z" />
<glyph unicode="&#xe980;" glyph-name="arrow-left-double-fill" d="M206.327 448l264.837-264.836 60.339 60.339-204.497 204.497 204.497 204.496-60.339 60.34-264.837-264.836zM447.39 448l264.836-264.836 60.339 60.339-204.497 204.497 204.497 204.496-60.339 60.34-264.836-264.836z" />
<glyph unicode="&#xe985;" glyph-name="arrow-left-line" d="M334.013 490.671h519.32v-85.333h-519.32l228.863-228.86-60.339-60.339-331.87 331.866 331.87 331.871 60.339-60.34-228.863-228.864z" />
<glyph unicode="&#xe986;" glyph-name="arrow-left-right-fill" d="M682.667 277.333v170.667l213.333-213.333-213.333-213.333v170.667h-512v85.333h512zM341.333 874.667v-170.624l512-0.043v-85.333h-512v-170.667l-213.333 213.333 213.333 213.333z" />
<glyph unicode="&#xe989;" glyph-name="arrow-left-s-line" d="M462.012 447.97l211.191-211.187-60.339-60.339-271.531 271.526 271.531 271.53 60.339-60.34-211.191-211.19z" />
<glyph unicode="&#xe98e;" glyph-name="arrow-right-circle-fill" d="M512 874.667c235.52 0 426.667-191.147 426.667-426.667s-191.147-426.667-426.667-426.667c-235.52 0-426.667 191.147-426.667 426.667s191.147 426.667 426.667 426.667zM512 490.667h-170.667v-85.333h170.667v-128l170.667 170.667-170.667 170.667v-128z" />
<glyph unicode="&#xe98f;" glyph-name="arrow-right-circle-line" d="M512 490.667v128l170.667-170.667-170.667-170.667v128h-170.667v85.333h170.667zM512 874.667c235.52 0 426.667-191.147 426.667-426.667s-191.147-426.667-426.667-426.667c-235.52 0-426.667 191.147-426.667 426.667s191.147 426.667 426.667 426.667zM512 106.667c188.587 0 341.333 152.747 341.333 341.333s-152.747 341.333-341.333 341.333c-188.587 0-341.333-152.747-341.333-341.333s152.747-341.333 341.333-341.333z" />
<glyph unicode="&#xe991;" glyph-name="arrow-right-double-line" d="M817.673 448l-264.836 264.836-60.339-60.34 204.497-204.496-204.497-204.497 60.339-60.339 264.836 264.836zM576.61 448l-264.835 264.836-60.34-60.34 204.497-204.496-204.497-204.497 60.34-60.339 264.835 264.836z" />
<glyph unicode="&#xe995;" glyph-name="arrow-right-line" d="M689.988 490.671l-228.864 228.864 60.339 60.34 331.87-331.871-331.87-331.866-60.339 60.339 228.864 228.86h-519.322v85.333h519.322z" />
<glyph unicode="&#xe997;" glyph-name="arrow-right-s-line" d="M561.993 447.97l-211.191 211.19 60.34 60.34 271.529-271.53-271.529-271.526-60.34 60.339 211.191 211.187z" />
<glyph unicode="&#xe9a1;" glyph-name="arrow-up-circle-line" d="M512 874.667c235.52 0 426.667-191.147 426.667-426.667s-191.147-426.667-426.667-426.667c-235.52 0-426.667 191.147-426.667 426.667s191.147 426.667 426.667 426.667zM512 106.667c188.587 0 341.333 152.747 341.333 341.333s-152.747 341.333-341.333 341.333c-188.587 0-341.333-152.747-341.333-341.333s152.747-341.333 341.333-341.333zM554.667 448v-170.667h-85.333v170.667h-128l170.667 170.667 170.667-170.667h-128z" />
<glyph unicode="&#xe9a2;" glyph-name="arrow-up-double-fill" d="M512 753.672l-264.836-264.835 60.34-60.339 204.496 204.495 204.497-204.495 60.339 60.339-264.836 264.835zM512 512.61l-264.836-264.836 60.34-60.339 204.496 204.497 204.497-204.497 60.339 60.339-264.836 264.836z" />
<glyph unicode="&#xe9a5;" glyph-name="arrow-up-down-line" d="M509.858 620.811l-60.339-60.34-108.152 108.201-0.032-562.005h-85.333l0.032 562.005-108.215-108.201-60.34 60.34 211.189 211.189 211.19-211.189zM936.525 275.187l-211.191-211.187-211.187 211.187 60.339 60.343 108.215-108.203-0.034 562.005h85.333l0.034-562.005 108.151 108.203 60.339-60.343z" />
<glyph unicode="&#xe9a7;" glyph-name="arrow-up-line" d="M554.671 625.987v-519.32h-85.333v519.32l-228.862-228.863-60.34 60.339 331.869 331.87 331.87-331.87-60.339-60.339-228.864 228.863z" />
<glyph unicode="&#xe9a9;" glyph-name="arrow-up-s-line" d="M511.996 497.988l-211.187-211.191-60.34 60.339 271.527 271.531 271.531-271.531-60.339-60.339-211.191 211.191z" />
<glyph unicode="&#xe9ad;" glyph-name="artboard-2-line" d="M341.333 618.667v-341.333h341.333v341.333h-341.333zM256 704h512v-512h-512v512zM256 874.667h85.333v-128h-85.333v128zM256 149.333h85.333v-128h-85.333v128zM85.333 704h128v-85.333h-128v85.333zM85.333 277.333h128v-85.333h-128v85.333zM810.667 704h128v-85.333h-128v85.333zM810.667 277.333h128v-85.333h-128v85.333zM682.667 874.667h85.333v-128h-85.333v128zM682.667 149.333h85.333v-128h-85.333v128z" />
<glyph unicode="&#xe9b0;" glyph-name="article-fill" d="M853.333 21.333h-682.667c-23.564 0-42.667 19.102-42.667 42.667v768c0 23.564 19.103 42.667 42.667 42.667h682.667c23.565 0 42.667-19.103 42.667-42.667v-768c0-23.565-19.102-42.667-42.667-42.667zM298.667 704v-170.667h170.667v170.667h-170.667zM298.667 448v-85.333h426.667v85.333h-426.667zM298.667 277.333v-85.333h426.667v85.333h-426.667zM554.667 661.333v-85.333h170.667v85.333h-170.667z" />
<glyph unicode="&#xe9b1;" glyph-name="article-line" d="M853.333 21.333h-682.667c-23.564 0-42.667 19.102-42.667 42.667v768c0 23.564 19.103 42.667 42.667 42.667h682.667c23.565 0 42.667-19.103 42.667-42.667v-768c0-23.565-19.102-42.667-42.667-42.667zM810.667 106.667v682.667h-597.333v-682.667h597.333zM298.667 704h170.667v-170.667h-170.667v170.667zM298.667 448h426.667v-85.333h-426.667v85.333zM298.667 277.333h426.667v-85.333h-426.667v85.333zM554.667 661.333h170.667v-85.333h-170.667v85.333z" />
<glyph unicode="&#xe9b2;" glyph-name="aspect-ratio-fill" d="M896 832c23.565 0 42.667-19.103 42.667-42.667v-682.667c0-23.565-19.102-42.667-42.667-42.667h-768c-23.564 0-42.667 19.102-42.667 42.667v682.667c0 23.564 19.103 42.667 42.667 42.667h768zM768 448h-85.333v-128h-128v-85.333h213.333v213.333zM469.333 661.333h-213.333v-213.333h85.333v128h128v85.333z" />
<glyph unicode="&#xe9b3;" glyph-name="aspect-ratio-line" d="M896 832c23.565 0 42.667-19.103 42.667-42.667v-682.667c0-23.565-19.102-42.667-42.667-42.667h-768c-23.564 0-42.667 19.102-42.667 42.667v682.667c0 23.564 19.103 42.667 42.667 42.667h768zM853.333 746.667h-682.667v-597.333h682.667v597.333zM554.667 234.667v85.333h128v128h85.333v-213.333h-213.333zM469.333 661.333v-85.333h-128v-128h-85.333v213.333h213.333z" />
<glyph unicode="&#xe9b5;" glyph-name="at-fill" d="M512 21.333c-235.642 0-426.667 191.027-426.667 426.667 0 235.642 191.025 426.667 426.667 426.667 235.639 0 426.667-191.025 426.667-426.667 0-235.639-191.027-426.667-426.667-426.667zM853.333 448c0 188.513-152.819 341.333-341.333 341.333s-341.333-152.82-341.333-341.333c0-188.514 152.82-341.333 341.333-341.333 62.729 0 121.506 16.922 172.015 46.447l-43.004 73.724c-37.879-22.148-81.963-34.837-129.011-34.837-141.385 0-256 114.615-256 256s114.615 256 256 256c141.385 0 256-114.615 256-256v-42.667c0-23.565-19.102-42.667-42.667-42.667s-42.667 19.102-42.667 42.667v170.667h-57.779c-30.084 26.554-69.606 42.667-112.887 42.667-94.257 0-170.667-76.41-170.667-170.667 0-94.255 76.41-170.667 170.667-170.667 44.651 0 85.295 17.143 115.708 45.21 23.479-27.657 58.505-45.21 97.626-45.21 70.694 0 128 57.306 128 128v42.667zM512 533.333c47.13 0 85.333-38.204 85.333-85.333s-38.204-85.333-85.333-85.333c-47.13 0-85.333 38.204-85.333 85.333s38.204 85.333 85.333 85.333z" />
<glyph unicode="&#xe9b6;" glyph-name="at-line" d="M853.333 448c0 188.513-152.819 341.333-341.333 341.333s-341.333-152.82-341.333-341.333c0-188.514 152.82-341.333 341.333-341.333 70.050 0 135.172 21.103 189.359 57.297l47.339-71.010c-67.729-45.244-149.133-71.62-236.698-71.62-235.642 0-426.667 191.027-426.667 426.667 0 235.642 191.025 426.667 426.667 426.667 235.639 0 426.667-191.025 426.667-426.667v-64c0-82.475-66.859-149.333-149.333-149.333-51.379 0-96.7 25.95-123.571 65.455-38.81-40.346-93.355-65.455-153.762-65.455-117.821 0-213.333 95.514-213.333 213.333s95.513 213.333 213.333 213.333c48.034 0 92.361-15.876 128.021-42.667h85.312v-234.667c0-35.345 28.655-64 64-64s64 28.655 64 64v64zM512 576c-70.694 0-128-57.306-128-128s57.306-128 128-128c70.694 0 128 57.306 128 128s-57.306 128-128 128z" />
<glyph unicode="&#xe9b7;" glyph-name="attachment-2" d="M632.691 629.019l-241.361-241.358c-16.663-16.661-16.663-43.678 0-60.339 16.662-16.666 43.678-16.666 60.339 0l241.361 241.358c49.984 49.987 49.984 131.032 0 181.019-49.988 49.987-131.034 49.987-181.022 0l-241.358-241.359c-83.312-83.311-83.312-218.385 0-301.7 83.312-83.311 218.386-83.311 301.697 0l241.361 241.361 60.339-60.339-241.357-241.361c-116.638-116.634-305.744-116.634-422.38 0-116.637 116.638-116.637 305.741 0 422.38l241.359 241.359c83.311 83.312 218.389 83.312 301.7 0s83.311-218.387 0-301.699l-241.361-241.361c-49.984-49.984-131.031-49.984-181.018 0-49.987 49.988-49.987 131.034 0 181.022l241.357 241.359 60.343-60.34z" />
<glyph unicode="&#xe9b9;" glyph-name="attachment-line" d="M597.333 384v234.667c0 94.257-76.412 170.667-170.667 170.667-94.257 0-170.667-76.41-170.667-170.667v-234.667c0-153.169 124.166-277.333 277.333-277.333 153.169 0 277.333 124.164 277.333 277.333v405.333h85.333v-405.333c0-200.294-162.372-362.667-362.667-362.667s-362.667 162.372-362.667 362.667v234.667c0 141.385 114.615 256 256 256s256-114.615 256-256v-234.667c0-82.475-66.859-149.333-149.333-149.333s-149.333 66.859-149.333 149.333v234.667h85.333v-234.667c0-35.345 28.655-64 64-64s64 28.655 64 64z" />
<glyph unicode="&#xe9bc;" glyph-name="award-fill" d="M725.333 309.53v-293.184c0-11.78-9.553-21.338-21.333-21.338-3.866 0-7.659 1.054-10.974 3.042l-181.026 108.617-181.024-108.617c-10.103-6.059-23.207-2.782-29.269 7.317-1.989 3.319-3.040 7.113-3.040 10.978v293.184c-78.034 62.554-128 158.677-128 266.47 0 188.513 152.82 341.333 341.333 341.333s341.333-152.82 341.333-341.333c0-107.793-49.967-203.917-128-266.47zM512 320c141.385 0 256 114.615 256 256s-114.615 256-256 256c-141.385 0-256-114.615-256-256s114.615-256 256-256zM512 405.333c-94.257 0-170.667 76.412-170.667 170.667 0 94.257 76.41 170.667 170.667 170.667 94.255 0 170.667-76.41 170.667-170.667 0-94.255-76.412-170.667-170.667-170.667z" />
<glyph unicode="&#xe9bd;" glyph-name="award-line" d="M725.333 309.53v-293.184c0-11.78-9.553-21.338-21.333-21.338-3.866 0-7.659 1.054-10.974 3.042l-181.026 108.617-181.024-108.617c-10.103-6.059-23.207-2.782-29.269 7.317-1.989 3.319-3.040 7.113-3.040 10.978v293.184c-78.034 62.554-128 158.677-128 266.47 0 188.513 152.82 341.333 341.333 341.333s341.333-152.82 341.333-341.333c0-107.793-49.967-203.917-128-266.47zM384 259.477v-130.095l128 76.8 128-76.8v130.095c-39.526-16-82.735-24.811-128-24.811s-88.472 8.811-128 24.811zM512 320c141.385 0 256 114.615 256 256s-114.615 256-256 256c-141.385 0-256-114.615-256-256s114.615-256 256-256z" />
<glyph unicode="&#xe9c0;" glyph-name="ball-pen-fill" d="M761.566 456.32l-30.17 30.17-422.377-422.379h-181.019v181.022l482.718 482.717 241.361-241.361c16.661-16.661 16.661-43.678 0-60.339l-301.7-301.696-60.339 60.339 271.526 271.526zM791.735 848.53l120.683-120.68c16.661-16.662 16.661-43.677 0-60.34l-60.339-60.34-181.022 181.019 60.339 60.34c16.666 16.662 43.678 16.662 60.339 0z" />
<glyph unicode="&#xe9c1;" glyph-name="ball-pen-line" d="M761.566 460.873l-30.17 30.17-422.377-422.379h-181.019v181.022l482.718 482.717 241.361-241.36c16.661-16.661 16.661-43.678 0-60.339l-301.7-301.7-60.339 60.343 271.526 271.526zM671.057 551.383l-60.339 60.34-397.385-397.387v-60.339h60.34l397.384 397.386zM791.735 853.082l120.683-120.68c16.661-16.662 16.661-43.677 0-60.34l-60.339-60.34-181.022 181.019 60.339 60.34c16.666 16.662 43.678 16.662 60.339 0z" />
<glyph unicode="&#xe9c2;" glyph-name="bank-card-2-fill" d="M938.876 490.675v-384c0-23.565-19.102-42.667-42.667-42.667h-768.001c-23.564 0-42.667 19.102-42.667 42.667v384h853.334zM938.876 661.342h-853.334v128c0 23.564 19.103 42.667 42.667 42.667h768.001c23.565 0 42.667-19.102 42.667-42.667v-128z" />
<glyph unicode="&#xe9c3;" glyph-name="bank-card-2-line" d="M128.208 832.009h768.001c23.565 0 42.667-19.102 42.667-42.667v-682.667c0-23.565-19.102-42.667-42.667-42.667h-768.001c-23.564 0-42.667 19.102-42.667 42.667v682.667c0 23.564 19.103 42.667 42.667 42.667zM853.542 448.009h-682.668v-298.667h682.668v298.667zM853.542 618.676v128h-682.668v-128h682.668z" />
<glyph unicode="&#xe9c6;" glyph-name="bank-fill" d="M85.333 106.667h853.333v-85.333h-853.333v85.333zM170.667 448h85.333v-298.667h-85.333v298.667zM384 448h85.333v-298.667h-85.333v298.667zM554.667 448h85.333v-298.667h-85.333v298.667zM768 448h85.333v-298.667h-85.333v298.667zM85.333 661.333l426.667 213.333 426.667-213.333v-170.667h-853.333v170.667zM512 618.667c23.565 0 42.667 19.103 42.667 42.667s-19.102 42.667-42.667 42.667c-23.565 0-42.667-19.103-42.667-42.667s19.102-42.667 42.667-42.667z" />
<glyph unicode="&#xe9c7;" glyph-name="bank-line" d="M85.333 106.667h853.333v-85.333h-853.333v85.333zM170.667 448h85.333v-298.667h-85.333v298.667zM384 448h85.333v-298.667h-85.333v298.667zM554.667 448h85.333v-298.667h-85.333v298.667zM768 448h85.333v-298.667h-85.333v298.667zM85.333 661.333l426.667 213.333 426.667-213.333v-170.667h-853.333v170.667zM170.667 608.594v-32.594h682.667v32.594l-341.333 170.667-341.333-170.667zM512 618.667c-23.565 0-42.667 19.103-42.667 42.667s19.102 42.667 42.667 42.667c23.565 0 42.667-19.103 42.667-42.667s-19.102-42.667-42.667-42.667z" />
<glyph unicode="&#xe9c8;" glyph-name="bar-chart-2-fill" d="M85.333 405.333h256v-341.333h-256v341.333zM384 832h256v-768h-256v768zM682.667 618.667h256v-554.667h-256v554.667z" />
<glyph unicode="&#xe9c9;" glyph-name="bar-chart-2-line" d="M85.333 405.333h256v-341.333h-256v341.333zM682.667 618.667h256v-554.667h-256v554.667zM384 832h256v-768h-256v768zM170.667 320v-170.667h85.333v170.667h-85.333zM469.333 746.667v-597.333h85.333v597.333h-85.333zM768 533.333v-384h85.333v384h-85.333z" />
<glyph unicode="&#xe9ca;" glyph-name="bar-chart-box-fill" d="M128 832h768c23.565 0 42.667-19.103 42.667-42.667v-682.667c0-23.565-19.102-42.667-42.667-42.667h-768c-23.564 0-42.667 19.102-42.667 42.667v682.667c0 23.564 19.103 42.667 42.667 42.667zM298.667 405.333v-170.667h85.333v170.667h-85.333zM469.333 661.333v-426.667h85.333v426.667h-85.333zM640 533.333v-298.667h85.333v298.667h-85.333z" />
<glyph unicode="&#xe9cb;" glyph-name="bar-chart-box-line" d="M128 832h768c23.565 0 42.667-19.103 42.667-42.667v-682.667c0-23.565-19.102-42.667-42.667-42.667h-768c-23.564 0-42.667 19.102-42.667 42.667v682.667c0 23.564 19.103 42.667 42.667 42.667zM170.667 746.667v-597.333h682.667v597.333h-682.667zM298.667 405.333h85.333v-170.667h-85.333v170.667zM469.333 661.333h85.333v-426.667h-85.333v426.667zM640 533.333h85.333v-298.667h-85.333v298.667z" />
<glyph unicode="&#xe9cf;" glyph-name="bar-chart-horizontal-fill" d="M512 832v-170.667h-384v170.667h384zM682.667 234.667v-170.667h-554.667v170.667h554.667zM938.667 533.333v-170.667h-810.667v170.667h810.667z" />
<glyph unicode="&#xe9d0;" glyph-name="bar-chart-horizontal-line" d="M512 832v-85.333h-384v85.333h384zM682.667 149.333v-85.333h-554.667v85.333h554.667zM938.667 490.667v-85.333h-810.667v85.333h810.667z" />
<glyph unicode="&#xe9d1;" glyph-name="bar-chart-line" d="M128 448h85.333v-384h-85.333v384zM810.667 618.667h85.333v-554.667h-85.333v554.667zM469.333 874.667h85.333v-810.667h-85.333v810.667z" />
<glyph unicode="&#xe9dc;" glyph-name="basketball-fill" d="M527.616 389.717l75.721-43.738c-46.537-102.933-48.87-216.567-13.274-317.453-25.263-4.745-51.375-7.194-78.063-7.194-62.494 0-121.85 13.436-175.337 37.577l190.953 330.807zM677.696 303.036l180.621-104.307c-46.694-64.759-111.104-115.895-186.133-146.308-27.716 75.11-28.958 159.428 0.346 237.641l5.167 12.975zM377.981 476.087l75.737-43.703-190.988-330.701c-69.902 50.402-123.931 121.446-153.156 204.203 100.646 18.705 194.033 73.357 259.636 158.417l8.771 11.785zM934.618 507.029c2.671-19.294 4.049-39.002 4.049-59.029 0-62.494-13.436-121.852-37.577-175.339l-180.715 104.303c52.134 68.915 126.878 113.37 207.612 128.909l6.63 1.156zM122.91 623.337l180.701-104.323c-53.566-70.797-130.99-115.776-214.229-130.125-2.667 19.345-4.049 39.066-4.049 59.11 0 62.494 13.436 121.85 37.577 175.337zM761.271 794.318c69.888-50.394 123.913-121.422 153.139-204.16-100.668-18.766-194.044-73.426-259.635-158.482l-8.772-11.785-75.721 43.725 190.989 330.702zM512 874.667c62.494 0 121.852-13.436 175.339-37.577l-190.955-330.807-75.737 43.698c46.553 102.946 48.891 216.598 13.29 317.498 25.263 4.739 51.375 7.188 78.063 7.188zM351.863 843.547c27.677-75.097 28.913-159.428-0.405-237.647l-5.17-12.977-180.606 104.346c44.925 62.306 106.249 112 177.649 142.761l8.532 3.516z" />
<glyph unicode="&#xe9dd;" glyph-name="basketball-line" d="M512 874.667c235.639 0 426.667-191.025 426.667-426.667 0-235.639-191.027-426.667-426.667-426.667-235.642 0-426.667 191.027-426.667 426.667 0 235.642 191.025 426.667 426.667 426.667zM527.616 389.717l-148.007-256.427c40.711-17.148 85.445-26.624 132.391-26.624 19.721 0 39.049 1.673 57.852 4.881-10.987 77.756-0.631 158.955 33.472 234.406l-75.708 43.763zM677.696 303.044c-22.682-53.73-30.566-110.801-25.028-166.106 52.070 23.556 97.143 59.806 131.311 104.785l-106.283 61.321zM377.965 476.066c-48.301-67.277-113.461-116.851-186.235-146.249 22.692-61.594 62.654-114.795 113.996-153.796l147.992 256.363-75.753 43.682zM851.695 481.66l-10.999-5.193c-46.255-22.865-87.723-56.405-120.337-99.52l106.334-61.38c17.156 40.721 26.641 85.47 26.641 132.433 0 11.358-0.555 22.588-1.638 33.66zM170.667 448c0-11.358 0.555-22.588 1.639-33.66 50.682 22.848 96.14 58.197 131.309 104.678l-106.323 61.373c-17.147-40.711-26.625-85.445-26.625-132.391zM718.276 719.978l-147.994-256.362 75.721-43.725c48.316 67.311 113.502 116.908 186.308 146.309-21.073 57.131-57.050 107.113-103.206 145.201l-10.829 8.576zM512 789.333c-19.733 0-39.078-1.675-57.894-4.89 11.029-77.776 0.67-158.985-33.449-234.441l75.727-43.72 148.006 256.426c-40.708 17.147-85.444 26.625-132.39 26.625zM371.334 759.059l-8.16-3.793c-48.607-23.587-90.775-58.368-123.152-100.991l106.264-61.357c22.694 53.737 30.586 110.823 25.047 166.141z" />
<glyph unicode="&#xe9f1;" glyph-name="behance-fill" d="M317.552 731.734c27.279 0 52.459-2.111 75.541-8.443 23.082-4.221 41.967-12.664 58.756-23.218 16.785-10.554 29.376-25.328 37.769-44.325s12.591-42.214 12.591-67.543c0-29.55-6.293-54.881-20.983-73.876-12.591-18.995-33.574-35.883-58.755-48.546 35.672-10.551 62.949-29.551 79.738-54.878 16.785-25.327 27.277-56.99 27.277-92.873 0-29.551-6.293-54.878-16.785-75.985s-27.281-40.102-46.165-52.77c-18.884-12.663-41.966-23.215-67.146-29.547s-50.361-10.556-75.541-10.556h-281.18v582.559h274.885zM300.765 495.334c23.082 0 41.967 6.332 56.656 16.883 14.688 10.556 20.983 29.552 20.983 52.77 0 12.664-2.098 25.329-6.295 33.772s-10.492 14.775-18.885 21.107c-8.393 4.221-16.787 8.443-27.279 10.554s-20.983 2.111-33.574 2.111h-121.705v-137.196h130.098zM307.060 246.268c12.59 0 25.181 2.112 35.672 4.224 10.492 2.108 20.983 6.332 29.377 12.663s14.688 12.663 20.983 23.219c4.197 10.551 8.394 23.215 8.394 37.99 0 29.551-8.393 50.658-25.181 65.434-16.787 12.663-39.869 18.995-67.148 18.995h-138.492v-162.526h136.393zM712.043 248.38c16.789-16.887 41.967-25.327 75.541-25.327 23.083 0 44.066 6.332 60.851 16.883 16.789 12.663 27.281 25.331 31.479 37.995h102.818c-16.789-50.658-41.967-86.541-75.541-109.76-33.574-21.107-73.442-33.771-121.707-33.771-33.574 0-62.95 6.332-90.227 16.887-27.281 10.551-48.265 25.327-67.149 46.434-18.884 18.999-33.574 42.214-41.967 69.653-10.492 27.439-14.69 56.99-14.69 90.761 0 31.663 4.198 61.214 14.69 88.653s25.182 50.658 44.066 71.765c18.884 18.995 41.967 35.881 67.149 46.434 27.277 10.554 54.554 16.886 88.128 16.886 35.674 0 67.149-6.332 94.43-21.107 27.277-14.775 48.26-31.661 65.045-56.988 16.789-23.219 29.38-50.658 37.773-80.209 4.194-29.551 6.293-59.098 4.194-92.873h-304.26c0-33.771 12.591-65.429 29.376-82.317zM844.241 470.003c-14.69 14.775-37.773 23.219-65.050 23.219-18.884 0-33.574-4.22-46.165-10.551s-20.983-14.775-29.376-23.219c-8.393-8.444-12.591-18.995-14.69-29.551-2.095-10.551-4.194-18.995-4.194-27.439h188.851c-4.194 31.663-14.69 52.77-29.376 67.541zM659.584 691.631h235.017v-56.989h-235.017v56.989z" />
<glyph unicode="&#xe9f2;" glyph-name="behance-line" d="M320 490.667c47.128 0 85.333 38.204 85.333 85.333s-38.205 85.333-85.333 85.333h-192v-170.667h192zM362.667 405.333h-234.667v-170.667h234.667c47.128 0 85.333 38.204 85.333 85.333s-38.205 85.333-85.333 85.333zM450.697 466.24c49.523-29.871 82.637-84.19 82.637-146.24 0-94.255-76.412-170.667-170.667-170.667h-320v597.333h277.333c94.257 0 170.667-76.41 170.667-170.667 0-41.798-15.027-80.085-39.97-109.76zM661.333 704h234.667v-64h-234.667v64zM981.333 341.333h-320v-10.667c0-64.802 52.531-117.333 117.333-117.333 45.598 0 85.12 26.010 104.538 64h91.038c-23.411-86.054-102.106-149.333-195.575-149.333-111.932 0-202.667 90.735-202.667 202.667v64c0 111.932 90.735 202.667 202.667 202.667s202.667-90.735 202.667-202.667v-53.333zM891.584 426.667c-13.931 49.25-59.209 85.333-112.917 85.333s-98.987-36.083-112.917-85.333h225.835z" />
<glyph unicode="&#xe9f7;" glyph-name="bilibili-fill" d="M777.515 828.327c20.83-20.828 20.83-54.597 0-75.424l-48.768-48.741 49.92-0.017c88.367 0 160-71.634 160-160v-319.999c0-88.367-71.633-160-160-160h-533.333c-88.366 0-160 71.633-160 160v319.999c0 88.366 71.634 160 160 160l49.76 0.017-48.708 48.7c-20.828 20.828-20.828 54.597 0 75.425s54.597 20.828 75.425 0l113.138-113.137c3.362-3.364 6.182-7.065 8.461-10.995l137.054-0.010c2.283 3.948 5.111 7.667 8.491 11.045l113.139 113.137c20.826 20.828 54.596 20.828 75.422 0zM778.667 597.051h-533.333c-28.116 0-51.151-21.757-53.187-49.353l-0.146-3.98v-319.999c0-28.117 21.757-51.153 49.353-53.188l3.98-0.145h533.333c28.117 0 51.153 21.756 53.188 49.353l0.145 3.981v319.999c0 29.455-23.876 53.333-53.333 53.333zM352 490.385c29.455 0 53.333-23.881 53.333-53.333v-53.333c0-29.457-23.878-53.333-53.333-53.333s-53.333 23.876-53.333 53.333v53.333c0 29.453 23.878 53.333 53.333 53.333zM672 490.385c29.457 0 53.333-23.881 53.333-53.333v-53.333c0-29.457-23.876-53.333-53.333-53.333s-53.333 23.876-53.333 53.333v53.333c0 29.453 23.876 53.333 53.333 53.333z" />
<glyph unicode="&#xea0b;" glyph-name="blur-off-fill" d="M231.782 668.019l-172.324 172.324 60.34 60.34 844.759-844.756-60.343-60.339-129.655 129.655c-150.537-141.21-387.076-138.308-534.080 8.695s-149.903 383.543-8.696 534.080zM351.714 788.233l160.294 160.293 271.526-271.529c110.327-110.326 139.486-271.079 87.479-408.065l-519.3 519.301z" />
<glyph unicode="&#xea0c;" glyph-name="blur-off-line" d="M774.558 125.244c-150.537-141.21-387.076-138.308-534.080 8.695s-149.903 383.543-8.696 534.080l-172.324 172.324 60.34 60.34 844.759-844.756-60.343-60.339-129.655 129.655zM292.163 607.639c-107.907-117.169-105.021-299.684 8.655-413.361s296.192-116.561 413.359-8.653l-422.013 422.013zM871.014 268.932l-68.215 68.22c22.75 97.25-3.785 203.688-79.603 279.505l-211.187 211.189-99.955-99.953-60.34 60.34 160.294 160.293 271.526-271.529c110.327-110.326 139.486-271.079 87.479-408.065z" />
<glyph unicode="&#xea1a;" glyph-name="bookmark-2-fill" d="M213.333 874.667h597.333c23.565 0 42.667-19.103 42.667-42.667v-816.781c0-11.78-9.553-21.338-21.333-21.338-4.006 0-7.936 1.135-11.332 3.264l-308.668 193.519-308.668-193.519c-9.982-6.259-23.148-3.243-29.407 6.741-2.129 3.396-3.258 7.322-3.258 11.332v816.781c0 23.564 19.103 42.667 42.667 42.667zM341.333 576v-85.333h341.333v85.333h-341.333z" />
<glyph unicode="&#xea1b;" glyph-name="bookmark-2-line" d="M213.333 874.667h597.333c23.565 0 42.667-19.103 42.667-42.667v-816.781c0-11.78-9.553-21.338-21.333-21.338-4.006 0-7.936 1.135-11.332 3.264l-308.668 193.519-308.668-193.519c-9.982-6.259-23.148-3.243-29.407 6.741-2.129 3.396-3.258 7.322-3.258 11.332v816.781c0 23.564 19.103 42.667 42.667 42.667zM768 789.333h-512v-658.449l256 160.499 256-160.499v658.449zM341.333 576h341.333v-85.333h-341.333v85.333z" />
<glyph unicode="&#xea1c;" glyph-name="bookmark-3-fill" d="M170.667 874.667h682.667c23.565 0 42.667-19.103 42.667-42.667v-822.455c0-11.785-9.553-21.338-21.333-21.338-2.995 0-5.956 0.636-8.691 1.856l-353.975 157.935-353.974-157.935c-10.76-4.804-23.374 0.030-28.175 10.786-1.221 2.739-1.851 5.7-1.851 8.695v822.455c0 23.564 19.103 42.667 42.667 42.667zM512 384l125.393-65.924-23.949 139.631 101.449 98.883-140.194 20.372-62.699 127.038-62.699-127.038-140.193-20.372 101.446-98.883-23.948-139.631 125.394 65.924z" />
<glyph unicode="&#xea1d;" glyph-name="bookmark-3-line" d="M170.667 874.667h682.667c23.565 0 42.667-19.103 42.667-42.667v-822.455c0-11.785-9.553-21.338-21.333-21.338-2.995 0-5.956 0.636-8.691 1.856l-353.975 157.935-353.974-157.935c-10.76-4.804-23.374 0.030-28.175 10.786-1.221 2.739-1.851 5.7-1.851 8.695v822.455c0 23.564 19.103 42.667 42.667 42.667zM810.667 108.181v681.152h-597.333v-681.152l298.667 133.261 298.667-133.261zM512 384l-125.394-65.924 23.948 139.631-101.446 98.883 140.193 20.372 62.699 127.038 62.699-127.038 140.194-20.372-101.449-98.883 23.949-139.631-125.393 65.924z" />
<glyph unicode="&#xea20;" glyph-name="bookmark-fill" d="M213.333 874.667h597.333c23.565 0 42.667-19.103 42.667-42.667v-816.781c0-11.78-9.553-21.338-21.333-21.338-4.006 0-7.936 1.135-11.332 3.264l-308.668 193.519-308.668-193.519c-9.982-6.259-23.148-3.243-29.407 6.741-2.129 3.396-3.258 7.322-3.258 11.332v816.781c0 23.564 19.103 42.667 42.667 42.667z" />
<glyph unicode="&#xea21;" glyph-name="bookmark-line" d="M213.333 874.667h597.333c23.565 0 42.667-19.103 42.667-42.667v-816.781c0-11.78-9.553-21.338-21.333-21.338-4.006 0-7.936 1.135-11.332 3.264l-308.668 193.519-308.668-193.519c-9.982-6.259-23.148-3.243-29.407 6.741-2.129 3.396-3.258 7.322-3.258 11.332v816.781c0 23.564 19.103 42.667 42.667 42.667zM768 789.333h-512v-658.449l256 160.499 256-160.499v658.449z" />
<glyph unicode="&#xea22;" glyph-name="book-open-fill" d="M896 64h-341.333v640c0 70.692 57.306 128 128 128h213.333c23.565 0 42.667-19.103 42.667-42.667v-682.667c0-23.565-19.102-42.667-42.667-42.667zM469.333 64h-341.333c-23.564 0-42.667 19.102-42.667 42.667v682.667c0 23.564 19.103 42.667 42.667 42.667h213.333c70.692 0 128-57.308 128-128v-640zM469.333 64h85.333v-85.333h-85.333v85.333z" />
<glyph unicode="&#xea23;" glyph-name="book-open-line" d="M554.667 64v-85.333h-85.333v85.333h-341.333c-23.564 0-42.667 19.102-42.667 42.667v682.667c0 23.564 19.103 42.667 42.667 42.667h256c50.974 0 96.73-22.347 128-57.778 31.27 35.432 77.026 57.778 128 57.778h256c23.565 0 42.667-19.103 42.667-42.667v-682.667c0-23.565-19.102-42.667-42.667-42.667h-341.333zM853.333 149.333v597.333h-213.333c-47.13 0-85.333-38.205-85.333-85.333v-512h298.667zM469.333 149.333v512c0 47.128-38.204 85.333-85.333 85.333h-213.333v-597.333h298.667z" />
<glyph unicode="&#xea26;" glyph-name="bootstrap-fill" d="M231.395 830.371c-54.777 0-95.309-47.943-93.494-99.938 1.741-49.952-0.521-114.647-16.809-167.406-16.336-52.913-43.965-86.432-89.093-90.737v-48.585c45.128-4.305 72.756-37.824 89.093-90.735 16.288-52.762 18.549-117.457 16.809-167.407-1.815-51.989 38.717-99.938 93.502-99.938h561.275c54.775 0 95.3 47.945 93.487 99.938-1.741 49.95 0.521 114.645 16.806 167.407 16.346 52.911 43.9 86.43 89.028 90.735v48.585c-45.129 4.305-72.683 37.824-89.028 90.737-16.286 52.751-18.547 117.454-16.806 167.406 1.813 51.987-38.711 99.938-93.487 99.938h-561.283zM682.846 359.62c0-71.59-53.402-115.012-142.020-115.012h-150.86c-4.315 0-8.454 1.715-11.505 4.766s-4.766 7.189-4.766 11.507v374.236c0 4.315 1.714 8.454 4.766 11.505s7.19 4.766 11.505 4.766h149.998c73.894 0 122.389-40.027 122.389-101.484 0-43.136-32.623-81.753-74.189-88.516v-2.253c56.585-6.208 94.682-45.389 94.682-99.516zM524.373 599.808h-86.016v-121.498h72.448c56.004 0 86.886 22.554 86.886 62.865 0 37.774-26.556 58.633-73.318 58.633zM438.357 430.101v-133.897h89.182c58.308 0 89.199 23.398 89.199 67.371 0 43.981-31.753 66.534-92.949 66.534l-85.431-0.009z" />
<glyph unicode="&#xea27;" glyph-name="bootstrap-line" d="M42.667 490.667v-85.333c0 0 85.333 0 85.333-170.667v-42.667c0-70.694 57.308-128 128-128h512c70.694 0 128 57.306 128 128v42.667c0 170.667 85.333 170.667 85.333 170.667v85.333c0 0-85.333 0-85.333 170.667v42.667c0 70.692-57.306 128-128 128h-512c-70.692 0-128-57.308-128-128v-42.667c0-170.667-85.333-170.667-85.333-170.667zM882.099 448c-1.263-1.186-2.522-2.406-3.772-3.661-42.982-42.978-67.661-111.185-67.661-209.673v-42.667c0-23.565-19.102-42.667-42.667-42.667h-512c-23.564 0-42.667 19.102-42.667 42.667v42.667c0 98.487-24.68 166.694-67.66 209.673-1.252 1.254-2.51 2.475-3.771 3.661 1.262 1.186 2.519 2.406 3.771 3.661 42.981 42.978 67.66 111.185 67.66 209.673v42.667c0 23.564 19.103 42.667 42.667 42.667h512c23.565 0 42.667-19.103 42.667-42.667v-42.667c0-98.487 24.678-166.694 67.661-209.673 1.25-1.254 2.509-2.475 3.772-3.661zM362.667 661.333v-426.667h213.333c70.694 0 128 57.306 128 128 0 45.325-23.556 85.146-59.093 107.887 10.458 18.551 16.427 39.966 16.427 62.78 0 70.692-57.306 128-128 128h-170.667zM448 490.667v85.333h85.333c23.565 0 42.667-19.103 42.667-42.667s-19.102-42.667-42.667-42.667h-85.333zM448 405.333h128c23.565 0 42.667-19.102 42.667-42.667s-19.102-42.667-42.667-42.667h-128v85.333z" />
<glyph unicode="&#xea3a;" glyph-name="briefcase-2-fill" d="M298.667 746.667v128c0 23.564 19.103 42.667 42.667 42.667h341.333c23.565 0 42.667-19.103 42.667-42.667v-128h170.667c23.565 0 42.667-19.103 42.667-42.667v-597.333c0-23.565-19.102-42.667-42.667-42.667h-768c-23.564 0-42.667 19.102-42.667 42.667v597.333c0 23.564 19.103 42.667 42.667 42.667h170.667zM725.333 405.333v128h-85.333v-128h-256v128h-85.333v-128h-128v-256h682.667v256h-128zM384 832v-85.333h256v85.333h-256z" />
<glyph unicode="&#xea3b;" glyph-name="briefcase-2-line" d="M298.667 746.667v128c0 23.564 19.103 42.667 42.667 42.667h341.333c23.565 0 42.667-19.103 42.667-42.667v-128h170.667c23.565 0 42.667-19.103 42.667-42.667v-597.333c0-23.565-19.102-42.667-42.667-42.667h-768c-23.564 0-42.667 19.102-42.667 42.667v597.333c0 23.564 19.103 42.667 42.667 42.667h170.667zM853.333 405.333h-682.667v-256h682.667v256zM853.333 661.333h-682.667v-170.667h128v85.333h85.333v-85.333h256v85.333h85.333v-85.333h128v170.667zM384 832v-85.333h256v85.333h-256z" />
<glyph unicode="&#xea48;" glyph-name="brush-2-fill" d="M705.523 279.616l90.509 90.509-135.765 135.765 150.852 150.849-90.513 90.51-150.848-150.849-135.765 135.764-90.508-90.51 362.039-362.038zM569.758 717.079l120.678 120.679c16.666 16.663 43.678 16.663 60.339 0l150.852-150.849c16.661-16.662 16.661-43.677 0-60.34l-120.678-120.679 105.591-105.596c16.666-16.661 16.666-43.678 0-60.339l-331.866-331.87c-16.666-16.661-43.678-16.661-60.343 0l-422.377 422.379c-16.663 16.661-16.663 43.678 0 60.339l331.869 331.87c16.663 16.662 43.677 16.662 60.338 0l105.596-105.594z" />
<glyph unicode="&#xea49;" glyph-name="brush-2-line" d="M705.523 279.616l90.509 90.509-135.765 135.765 150.852 150.849-90.513 90.51-150.848-150.849-135.765 135.764-90.508-90.51 362.039-362.038zM645.184 219.277l-362.039 362.038-120.68-120.681 362.036-362.039 120.683 120.683zM569.758 717.079l120.678 120.679c16.666 16.663 43.678 16.663 60.339 0l150.852-150.849c16.661-16.662 16.661-43.677 0-60.34l-120.678-120.679 105.591-105.596c16.666-16.661 16.666-43.678 0-60.339l-331.866-331.87c-16.666-16.661-43.678-16.661-60.343 0l-422.377 422.379c-16.663 16.661-16.663 43.678 0 60.339l331.869 331.87c16.663 16.662 43.677 16.662 60.338 0l105.596-105.594z" />
<glyph unicode="&#xea4a;" glyph-name="brush-3-fill" d="M853.333 490.807v128h-256v170.667h-170.667v-170.667h-256v-128h682.667zM896 405.474v-341.333c0-23.565-19.102-42.667-42.667-42.667h-426.667v256h-85.333v-256h-170.667c-23.564 0-42.667 19.102-42.667 42.667v341.333h-42.667v256c0 23.564 19.103 42.667 42.667 42.667h213.333v128c0 23.564 19.103 42.667 42.667 42.667h256c23.565 0 42.667-19.103 42.667-42.667v-128h213.333c23.565 0 42.667-19.103 42.667-42.667v-256h-42.667z" />
<glyph unicode="&#xea4b;" glyph-name="brush-3-line" d="M341.333 106.807v213.333h85.333v-213.333h384v298.667h-597.333v-298.667h128zM170.667 490.807h682.667v128h-256v170.667h-170.667v-170.667h-256v-128zM128 64.141v341.333h-42.667v256c0 23.564 19.103 42.667 42.667 42.667h213.333v128c0 23.564 19.103 42.667 42.667 42.667h256c23.565 0 42.667-19.103 42.667-42.667v-128h213.333c23.565 0 42.667-19.103 42.667-42.667v-256h-42.667v-341.333c0-23.565-19.102-42.667-42.667-42.667h-682.667c-23.564 0-42.667 19.102-42.667 42.667z" />
<glyph unicode="&#xea4c;" glyph-name="brush-4-fill" d="M853.333 277.474h-682.667v-85.333h682.667v85.333zM128 362.807v426.667c0 23.564 19.103 42.667 42.667 42.667h128v-352.969h85.333v352.969h469.333c23.565 0 42.667-19.103 42.667-42.667v-426.667h42.667v-213.333c0-23.565-19.102-42.667-42.667-42.667h-341.333v-128h-85.333v128h-341.333c-23.564 0-42.667 19.102-42.667 42.667v213.333h42.667z" />
<glyph unicode="&#xea4d;" glyph-name="brush-4-line" d="M384 746.807v-267.635h-85.333v267.635h-85.333v-384h597.333v384h-426.667zM853.333 277.474h-682.667v-85.333h682.667v85.333zM128 362.807v426.667c0 23.564 19.103 42.667 42.667 42.667h682.667c23.565 0 42.667-19.103 42.667-42.667v-426.667h42.667v-213.333c0-23.565-19.102-42.667-42.667-42.667h-341.333v-128h-85.333v128h-341.333c-23.564 0-42.667 19.102-42.667 42.667v213.333h42.667z" />
<glyph unicode="&#xea4e;" glyph-name="brush-fill" d="M566.98 694.912l210.739 163.908c16.986 13.21 41.148 11.706 56.363-3.509l127.753-127.753c15.219-15.215 16.721-39.379 3.511-56.364l-163.866-210.683c12.506-50.701 12.753-105.186-1.719-159.194-38.319-143.010-167.689-237.257-309.026-237.257-149.402 0-341.402 64.081-448.068 128.081 169.804 128 130.015 205.235 149.333 277.333 45.16 168.538 206.602 266.98 374.98 225.437zM712.597 614.758c2.807-2.707 5.564-5.463 8.265-8.265l48.405-48.406 105.596 135.764-74.483 74.486-135.765-105.595 47.983-47.984z" />
<glyph unicode="&#xea4f;" glyph-name="brush-line" d="M659.477 547.199l-6.063 6.061c-27.661 26.667-62.272 46.903-102.012 57.551-124.019 33.231-243.119-37.061-276.977-163.421-1.828-6.822-2.821-14.481-4.41-33.741-6.582-79.791-25.344-139.29-76.796-199.642 96.421-37.909 210.65-64.614 297.515-64.614 105.327 0 198.946 70.793 226.603 174.012 22.101 82.487-2.615 166.49-57.86 223.794zM566.98 694.912l210.739 163.908c16.986 13.21 41.148 11.706 56.363-3.509l127.753-127.753c15.219-15.215 16.721-39.379 3.511-56.364l-163.866-210.683c12.506-50.701 12.753-105.186-1.719-159.194-38.319-143.010-167.689-237.257-309.026-237.257-149.402 0-341.402 64.081-448.068 128.081 169.804 128 130.015 205.235 149.333 277.333 45.16 168.538 206.602 266.98 374.98 225.437zM712.597 614.758c2.807-2.707 5.564-5.463 8.265-8.265l48.405-48.406 105.596 135.764-74.483 74.486-135.765-105.595 47.983-47.984z" />
<glyph unicode="&#xea54;" glyph-name="bug-2-fill" d="M216.358 277.333c-1.993 13.935-3.025 28.181-3.025 42.667v42.667h-85.333v85.333h85.333v42.667c0 14.485 1.031 28.732 3.025 42.667h-88.358v85.333h114.075c26.148 55.042 68.635 100.817 121.194 131.058l-44.785 44.785 60.34 60.34 71.826-71.824c19.802 4.134 40.32 6.308 61.35 6.308s41.549-2.173 61.35-6.308l71.825 71.824 60.339-60.34-44.783-44.785c52.557-30.24 95.044-76.016 121.195-131.058h114.074v-85.333h-88.358c1.993-13.935 3.025-28.181 3.025-42.667v-42.667h85.333v-85.333h-85.333v-42.667c0-14.485-1.033-28.732-3.025-42.667h88.358v-85.333h-114.074c-47.936-100.907-150.784-170.667-269.926-170.667s-221.99 69.76-269.925 170.667h-114.075v85.333h88.358zM384 533.333v-85.333h256v85.333h-256zM384 362.667v-85.333h256v85.333h-256z" />
<glyph unicode="&#xea55;" glyph-name="bug-2-line" d="M450.65 783.025c19.802 4.134 40.32 6.308 61.35 6.308s41.549-2.173 61.35-6.308l71.825 71.824 60.339-60.34-44.783-44.785c52.557-30.24 95.044-76.016 121.195-131.058h114.074v-85.333h-88.358c1.993-13.935 3.025-28.181 3.025-42.667v-42.667h85.333v-85.333h-85.333v-42.667c0-14.485-1.033-28.732-3.025-42.667h88.358v-85.333h-114.074c-47.936-100.907-150.784-170.667-269.926-170.667s-221.99 69.76-269.925 170.667h-114.075v85.333h88.358c-1.993 13.935-3.025 28.181-3.025 42.667v42.667h-85.333v85.333h85.333v42.667c0 14.485 1.031 28.732 3.025 42.667h-88.358v85.333h114.075c26.148 55.042 68.635 100.817 121.194 131.058l-44.785 44.785 60.34 60.34 71.826-71.824zM512 704c-117.821 0-213.333-95.513-213.333-213.333v-170.667c0-117.82 95.513-213.333 213.333-213.333s213.333 95.514 213.333 213.333v170.667c0 117.82-95.514 213.333-213.333 213.333zM384 362.667h256v-85.333h-256v85.333zM384 533.333h256v-85.333h-256v85.333z" />
<glyph unicode="&#xea68;" glyph-name="cake-2-fill" d="M341.333 704v-170.624h128v170.624h85.333v-170.624h128v170.624h85.333v-170.624l42.667-0.043c68.169 0 123.891-53.286 127.782-120.478l0.218-7.522v-42.667c0-43.26-16.098-82.761-42.624-112.841l-0.043-185.826c0-23.565-19.102-42.667-42.667-42.667h-682.667c-23.564 0-42.667 19.102-42.667 42.667l-0.035 186.022c-22.231 25.331-37.172 57.421-41.44 93.086l-0.957 10.803-0.235 8.755v42.667c0 68.169 53.287 123.891 120.479 127.782l7.521 0.218 42.667 0.043v170.624h85.333zM810.667 448h-597.333c-21.881 0-39.915-16.469-42.38-37.692l-0.287-4.975-0.018-41.434 0.164-6.285c2.604-44.932 39.933-80.282 85.187-80.282 42.992 0 78.831 31.902 84.494 72.555l0.64 6.49 0.218 7.522c1.539 53.274 77.94 55.177 84.826 5.709l0.471-5.709 0.163-6.285c2.603-44.932 39.932-80.282 85.188-80.282 44.988 0 81.843 34.812 85.099 78.963l0.533 12.053c5.291 49.31 79.445 49.31 84.736 0l0.533-12.053c3.255-44.151 40.111-78.963 85.099-78.963s81.843 34.812 85.099 78.963l0.235 6.37v42.667c0 21.879-16.469 39.915-37.692 42.381l-4.975 0.286zM298.667 917.333c56.298-37.171 70.967-89.089 61.819-123.231s-44.242-54.403-78.384-45.255c-34.142 9.148-54.403 44.242-45.255 78.384 12.698 47.388 61.819 26.102 61.819 90.102zM512 917.333c56.299-37.171 70.967-89.089 61.82-123.231s-44.241-54.403-78.383-45.255c-34.142 9.148-54.404 44.242-45.257 78.384 12.698 47.388 61.82 26.102 61.82 90.102zM725.333 917.333c56.299-37.171 70.967-89.089 61.82-123.231s-44.241-54.403-78.383-45.255c-34.142 9.148-54.404 44.242-45.257 78.384 12.698 47.388 61.82 26.102 61.82 90.102z" />
<glyph unicode="&#xea69;" glyph-name="cake-2-line" d="M341.333 704v-170.624h128v170.624h85.333v-170.624h128v170.624h85.333v-170.624l42.667-0.043c68.169 0 123.891-53.286 127.782-120.478l0.218-7.522v-42.667c0-43.26-16.098-82.761-42.624-112.841l-0.043-185.826c0-23.565-19.102-42.667-42.667-42.667h-682.667c-23.564 0-42.667 19.102-42.667 42.667l-0.035 186.022c-22.231 25.331-37.172 57.421-41.44 93.086l-0.957 10.803-0.235 8.755v42.667c0 68.169 53.287 123.891 120.479 127.782l7.521 0.218 42.667 0.043v170.624h85.333zM384.085 249.984l-2.318-2.692c-27.318-29.747-65.029-49.732-107.24-54.298l-9.818-0.777-8.71-0.218c-14.71 0-29 1.865-42.641 5.385l-0.026-90.718h597.333l0.034 90.718c-13.649-3.516-27.955-5.385-42.701-5.385-45.321 0-86.511 17.664-117.073 46.481l-6.383 6.345-4.544 5.030-4.544-5.030c-26.999-28.275-63.62-47.292-104.606-51.797l-10.334-0.819-8.516-0.209c-46.336 0-88.506 18.513-119.344 48.823l-6.432 6.673-2.138 2.487zM810.667 448h-597.333c-21.881 0-39.915-16.469-42.38-37.692l-0.287-4.975-0.018-41.434 0.164-6.285c2.604-44.932 39.933-80.282 85.187-80.282 42.992 0 78.831 31.902 84.494 72.555l0.64 6.49 0.218 7.522c1.539 53.274 77.94 55.177 84.826 5.709l0.471-5.709 0.163-6.285c2.603-44.932 39.932-80.282 85.188-80.282 44.988 0 81.843 34.812 85.099 78.963l0.533 12.053c5.291 49.31 79.445 49.31 84.736 0l0.533-12.053c3.255-44.151 40.111-78.963 85.099-78.963s81.843 34.812 85.099 78.963l0.235 6.37v42.667c0 21.879-16.469 39.915-37.692 42.381l-4.975 0.286zM298.667 917.333c56.298-37.171 70.967-89.089 61.819-123.231s-44.242-54.403-78.384-45.255c-34.142 9.148-54.403 44.242-45.255 78.384 12.698 47.388 61.819 26.102 61.819 90.102zM512 917.333c56.299-37.171 70.967-89.089 61.82-123.231s-44.241-54.403-78.383-45.255c-34.142 9.148-54.404 44.242-45.257 78.384 12.698 47.388 61.82 26.102 61.82 90.102zM725.333 917.333c56.299-37.171 70.967-89.089 61.82-123.231s-44.241-54.403-78.383-45.255c-34.142 9.148-54.404 44.242-45.257 78.384 12.698 47.388 61.82 26.102 61.82 90.102z" />
<glyph unicode="&#xea70;" glyph-name="calendar-2-fill" d="M725.333 832h170.667c23.565 0 42.667-19.103 42.667-42.667v-682.667c0-23.565-19.102-42.667-42.667-42.667h-768c-23.564 0-42.667 19.102-42.667 42.667v682.667c0 23.564 19.103 42.667 42.667 42.667h170.667v85.333h85.333v-85.333h256v85.333h85.333v-85.333zM170.667 576v-426.667h682.667v426.667h-682.667zM256 490.667h85.333v-85.333h-85.333v85.333zM469.333 490.667h85.333v-85.333h-85.333v85.333zM682.667 490.667h85.333v-85.333h-85.333v85.333z" />
<glyph unicode="&#xea71;" glyph-name="calendar-2-line" d="M384 917.333v-85.333h256v85.333h85.333v-85.333h170.667c23.565 0 42.667-19.103 42.667-42.667v-682.667c0-23.565-19.102-42.667-42.667-42.667h-768c-23.564 0-42.667 19.102-42.667 42.667v682.667c0 23.564 19.103 42.667 42.667 42.667h170.667v85.333h85.333zM853.333 490.667h-682.667v-341.333h682.667v341.333zM341.333 405.333v-85.333h-85.333v85.333h85.333zM554.667 405.333v-85.333h-85.333v85.333h85.333zM768 405.333v-85.333h-85.333v85.333h85.333zM298.667 746.667h-128v-170.667h682.667v170.667h-128v-85.333h-85.333v85.333h-256v-85.333h-85.333v85.333z" />
<glyph unicode="&#xea72;" glyph-name="calendar-check-fill" d="M384 917.333v-85.333h256v85.333h85.333v-85.333h170.667c23.565 0 42.667-19.103 42.667-42.667v-682.667c0-23.565-19.102-42.667-42.667-42.667h-768c-23.564 0-42.667 19.102-42.667 42.667v682.667c0 23.564 19.103 42.667 42.667 42.667h170.667v85.333h85.333zM853.333 618.667h-682.667v-469.333h682.667v469.333zM641.515 527.531l60.339-60.343-211.187-211.187-150.849 150.848 60.34 60.339 90.51-90.509 150.848 150.852z" />
<glyph unicode="&#xea73;" glyph-name="calendar-check-line" d="M384 917.333v-85.333h256v85.333h85.333v-85.333h170.667c23.565 0 42.667-19.103 42.667-42.667v-682.667c0-23.565-19.102-42.667-42.667-42.667h-768c-23.564 0-42.667 19.102-42.667 42.667v682.667c0 23.564 19.103 42.667 42.667 42.667h170.667v85.333h85.333zM853.333 533.333h-682.667v-384h682.667v384zM641.515 484.864l60.339-60.343-211.187-211.187-150.849 150.848 60.34 60.339 90.51-90.509 150.848 150.852zM298.667 746.667h-128v-128h682.667v128h-128v-42.667h-85.333v42.667h-256v-42.667h-85.333v42.667z" />
<glyph unicode="&#xea74;" glyph-name="calendar-close-fill" d="M384 832v85.333h-85.333v-85.333h-170.667c-23.564 0-42.667-19.103-42.667-42.667v-682.667c0-23.565 19.103-42.667 42.667-42.667h768c23.565 0 42.667 19.102 42.667 42.667v682.667c0 23.564-19.102 42.667-42.667 42.667h-170.667v85.333h-85.333v-85.333h-256zM170.667 618.667h682.667v-469.333h-682.667v469.333zM421.484 534.857l90.512-90.517 90.505 90.516 60.343-60.338-90.509-90.517 90.505-90.5-60.335-60.343-90.509 90.505-90.515-90.505-60.336 60.343 90.508 90.5-90.511 90.517 60.342 60.339z" />
<glyph unicode="&#xea75;" glyph-name="calendar-close-line" d="M384 832v85.333h-85.333v-85.333h-170.667c-23.564 0-42.667-19.103-42.667-42.667v-682.667c0-23.565 19.103-42.667 42.667-42.667h768c23.565 0 42.667 19.102 42.667 42.667v682.667c0 23.564-19.102 42.667-42.667 42.667h-170.667v85.333h-85.333v-85.333h-256zM170.667 533.333h682.667v-384h-682.667v384zM170.667 746.667h128v-42.667h85.333v42.667h256v-42.667h85.333v42.667h128v-128h-682.667v128zM421.488 492.186l90.512-90.513 90.505 90.513 60.343-60.335-90.509-90.522 90.505-90.5-60.335-60.339-90.509 90.5-90.515-90.5-60.336 60.343 90.508 90.496-90.511 90.522 60.342 60.335z" />
<glyph unicode="&#xea76;" glyph-name="calendar-event-fill" d="M725.333 832h170.667c23.565 0 42.667-19.103 42.667-42.667v-682.667c0-23.565-19.102-42.667-42.667-42.667h-768c-23.564 0-42.667 19.102-42.667 42.667v682.667c0 23.564 19.103 42.667 42.667 42.667h170.667v85.333h85.333v-85.333h256v85.333h85.333v-85.333zM170.667 576v-426.667h682.667v426.667h-682.667zM256 405.333h213.333v-170.667h-213.333v170.667z" />
<glyph unicode="&#xea77;" glyph-name="calendar-event-line" d="M384 917.333v-85.333h256v85.333h85.333v-85.333h170.667c23.565 0 42.667-19.103 42.667-42.667v-682.667c0-23.565-19.102-42.667-42.667-42.667h-768c-23.564 0-42.667 19.102-42.667 42.667v682.667c0 23.564 19.103 42.667 42.667 42.667h170.667v85.333h85.333zM853.333 490.667h-682.667v-341.333h682.667v341.333zM469.333 405.333v-170.667h-213.333v170.667h213.333zM298.667 746.667h-128v-170.667h682.667v170.667h-128v-85.333h-85.333v85.333h-256v-85.333h-85.333v85.333z" />
<glyph unicode="&#xea83;" glyph-name="camera-fill" d="M384 832h256l85.333-85.333h170.667c23.565 0 42.667-19.103 42.667-42.667v-597.333c0-23.565-19.102-42.667-42.667-42.667h-768c-23.564 0-42.667 19.102-42.667 42.667v597.333c0 23.564 19.103 42.667 42.667 42.667h170.667l85.333 85.333zM512 149.333c141.385 0 256 114.615 256 256s-114.615 256-256 256c-141.385 0-256-114.615-256-256s114.615-256 256-256zM512 234.667c-94.257 0-170.667 76.412-170.667 170.667s76.41 170.667 170.667 170.667c94.255 0 170.667-76.412 170.667-170.667s-76.412-170.667-170.667-170.667z" />
<glyph unicode="&#xea85;" glyph-name="camera-lens-line" d="M420.609 119.040l91.391 158.293h-295.669c44.231-76.463 117.271-134.174 204.278-158.293zM181.42 362.667h182.778l-147.834 256.057c-29.063-50.218-45.697-108.528-45.697-170.723 0-29.466 3.734-58.061 10.754-85.333zM272.852 691.55l91.347-158.217 147.802 256c-93.137 0-177.562-37.303-239.148-97.783zM603.392 776.961l-91.392-158.294h295.667c-44.228 76.463-117.269 134.174-204.275 158.294zM842.581 533.333h-182.78l147.836-256.055c29.060 50.219 45.696 108.527 45.696 170.722 0 29.466-3.733 58.061-10.752 85.333zM751.147 204.45l-91.345 158.217-147.802-256c93.137 0 177.562 37.303 239.147 97.783zM512 21.333c-235.642 0-426.667 191.027-426.667 426.667 0 235.642 191.025 426.667 426.667 426.667 235.639 0 426.667-191.025 426.667-426.667 0-235.639-191.027-426.667-426.667-426.667zM561.267 533.333h-98.534l-49.267-85.333 49.267-85.333h98.534l49.267 85.333-49.267 85.333z" />
<glyph unicode="&#xea8b;" glyph-name="candle-fill" d="M391.32 561.857c-66.649 66.649-66.649 174.709 0 241.359l120.68 120.68 120.678-120.68c66.65-66.65 66.65-174.71 0-241.359-22.379-22.38-49.429-37.245-78.012-44.596v-69.261h213.333c23.565 0 42.667-19.102 42.667-42.667v-298.667h85.333v-85.333h-768v85.333h85.333v298.667c0 23.565 19.103 42.667 42.667 42.667h213.333v69.261c-28.582 7.351-55.633 22.216-78.013 44.596zM451.661 742.877c-33.325-33.325-33.325-87.355 0-120.68 33.323-33.325 87.356-33.325 120.678 0 33.327 33.325 33.327 87.355 0 120.68l-60.339 60.34-60.339-60.34z" />
<glyph unicode="&#xea8c;" glyph-name="candle-line" d="M391.32 561.857c-66.649 66.649-66.649 174.709 0 241.359l120.68 120.68 120.678-120.68c66.65-66.65 66.65-174.71 0-241.359-22.379-22.38-49.429-37.245-78.012-44.596v-69.261h213.333c23.565 0 42.667-19.102 42.667-42.667v-298.667h85.333v-85.333h-768v85.333h85.333v298.667c0 23.565 19.103 42.667 42.667 42.667h213.333v69.261c-28.582 7.351-55.633 22.216-78.013 44.596zM451.661 742.877c-33.325-33.325-33.325-87.355 0-120.68 33.323-33.325 87.356-33.325 120.678 0 33.327 33.325 33.327 87.355 0 120.68l-60.339 60.34-60.339-60.34zM298.667 362.667v-256h426.667v256h-426.667z" />
<glyph unicode="&#xeaa7;" glyph-name="chat-1-fill" d="M426.667 832h170.667c188.514 0 341.333-152.82 341.333-341.333s-152.819-341.333-341.333-341.333v-149.333c-213.333 85.333-512 213.333-512 490.667 0 188.513 152.82 341.333 341.333 341.333z" />
<glyph unicode="&#xeaa8;" glyph-name="chat-1-line" d="M426.667 832h170.667c188.514 0 341.333-152.82 341.333-341.333s-152.819-341.333-341.333-341.333v-149.333c-213.333 85.333-512 213.333-512 490.667 0 188.513 152.82 341.333 341.333 341.333zM512 234.667h85.333c141.385 0 256 114.615 256 256s-114.615 256-256 256h-170.667c-141.385 0-256-114.615-256-256 0-154.027 105.049-254.532 341.333-361.805v105.805z" />
<glyph unicode="&#xeaa9;" glyph-name="chat-2-fill" d="M616.533 149.333l-104.533-149.333-104.533 149.333h-279.467c-23.564 0-42.667 19.102-42.667 42.667v597.333c0 23.564 19.103 42.667 42.667 42.667h768c23.565 0 42.667-19.103 42.667-42.667v-597.333c0-23.565-19.102-42.667-42.667-42.667h-279.467z" />
<glyph unicode="&#xeaaa;" glyph-name="chat-2-line" d="M616.533 149.333l-104.533-149.333-104.533 149.333h-279.467c-11.316 0-22.168 4.497-30.17 12.497s-12.497 18.854-12.497 30.17v597.333c0 11.316 4.495 22.168 12.497 30.17s18.854 12.497 30.17 12.497h768c11.315 0 22.17-4.495 30.17-12.497s12.497-18.854 12.497-30.17v-597.333c0-11.315-4.497-22.17-12.497-30.17s-18.854-12.497-30.17-12.497h-279.467zM572.117 234.667h281.216v512h-682.667v-512h281.216l60.117-85.845 60.117 85.845z" />
<glyph unicode="&#xeaab;" glyph-name="chat-3-fill" d="M311.090 71.501l-225.757-50.167 50.168 225.758c-32.016 59.87-50.168 128.269-50.168 200.909 0 235.642 191.025 426.667 426.667 426.667 235.639 0 426.667-191.025 426.667-426.667 0-235.639-191.027-426.667-426.667-426.667-72.64 0-141.039 18.15-200.91 50.167z" />
<glyph unicode="&#xeaac;" glyph-name="chat-3-line" d="M311.090 71.501l-225.757-50.167 50.168 225.758c-32.016 59.87-50.168 128.269-50.168 200.909 0 235.642 191.025 426.667 426.667 426.667 235.639 0 426.667-191.025 426.667-426.667 0-235.639-191.027-426.667-426.667-426.667-72.64 0-141.039 18.15-200.91 50.167zM323.445 161.664l27.884-14.912c48.99-26.197 103.732-40.085 160.671-40.085 188.514 0 341.333 152.819 341.333 341.333s-152.819 341.333-341.333 341.333c-188.513 0-341.333-152.82-341.333-341.333 0-56.939 13.888-111.68 40.085-160.67l14.911-27.883-27.938-125.722 125.721 27.938z" />
<glyph unicode="&#xeabb;" glyph-name="chat-history-fill" d="M512 874.667c235.639 0 426.667-191.025 426.667-426.667 0-235.639-191.027-426.667-426.667-426.667-72.619 0-141.003 18.142-200.862 50.142l-225.804-50.142 50.188 225.719c-32.029 59.878-50.188 128.294-50.188 200.947 0 235.642 191.025 426.667 426.667 426.667zM554.667 661.333h-85.333v-298.667h256v85.333h-170.667v213.333z" />
<glyph unicode="&#xeabc;" glyph-name="chat-history-line" d="M512 874.667c235.639 0 426.667-191.025 426.667-426.667 0-235.639-191.027-426.667-426.667-426.667-72.619 0-141.003 18.142-200.862 50.142l-225.804-50.142 50.188 225.719c-32.029 59.878-50.188 128.294-50.188 200.947 0 235.642 191.025 426.667 426.667 426.667zM512 789.333c-188.513 0-341.333-152.82-341.333-341.333 0-56.947 13.894-111.706 40.101-160.7l14.918-27.891-27.95-125.705 125.757 27.925 27.874-14.899c48.98-26.185 103.711-40.064 160.632-40.064 188.514 0 341.333 152.819 341.333 341.333s-152.819 341.333-341.333 341.333zM554.667 661.333v-213.333h170.667v-85.333h-256v298.667h85.333z" />
<glyph unicode="&#xeabd;" glyph-name="chat-new-fill" d="M275.394 149.333l-190.061-149.333v789.333c0 23.564 19.103 42.667 42.667 42.667h768c23.565 0 42.667-19.103 42.667-42.667v-597.333c0-23.565-19.102-42.667-42.667-42.667h-620.606zM469.333 533.333h-128v-85.333h128v-128h85.333v128h128v85.333h-128v128h-85.333v-128z" />
<glyph unicode="&#xeabe;" glyph-name="chat-new-line" d="M597.333 832v-85.333h-426.667v-571.098l75.214 59.098h607.453v298.667h85.333v-341.333c0-23.565-19.102-42.667-42.667-42.667h-620.606l-190.061-149.333v789.333c0 23.564 19.103 42.667 42.667 42.667h469.333zM810.667 832v128h85.333v-128h128v-85.333h-128v-128h-85.333v128h-128v85.333h128z" />
<glyph unicode="&#xeac5;" glyph-name="chat-quote-fill" d="M896 832c23.565 0 42.667-19.103 42.667-42.667v-597.333c0-23.565-19.102-42.667-42.667-42.667h-620.587l-190.080-149.333v789.333c0 23.564 19.103 42.667 42.667 42.667h768zM448.653 643.772c-76.247-33.077-128.653-100.003-128.653-174.66 0-42.445 11.801-68.629 33.78-91.959 13.836-14.69 35.727-25.152 58.618-25.152 41.238 0 74.668 33.429 74.668 74.667 0 39.275-30.34 70.874-68.832 74.441-6.882 0.64-13.828 0.521-20.445-0.393l0.012 3.908c0.226 18.803 4.218 74.223 69.895 109.76l-19.042 29.389zM661.986 643.772c-76.245-33.077-128.653-100.003-128.653-174.66 0-42.445 11.802-68.629 33.779-91.959 13.837-14.69 35.729-25.152 58.62-25.152 41.237 0 74.667 33.429 74.667 74.667 0 39.275-30.34 70.874-68.83 74.441-6.882 0.64-13.828 0.521-20.446-0.393l0.009 3.908c0.226 18.803 4.22 74.223 69.897 109.76l-19.042 29.389z" />
<glyph unicode="&#xeac6;" glyph-name="chat-quote-line" d="M896 832c23.565 0 42.667-19.103 42.667-42.667v-597.333c0-23.565-19.102-42.667-42.667-42.667h-620.587l-190.080-149.333v789.333c0 23.564 19.103 42.667 42.667 42.667h768zM853.333 746.667h-682.667v-571.093l75.235 59.093h607.431v512zM448.653 643.772l19.042-29.389c-71.15-38.498-69.906-100.331-69.906-113.668 6.618 0.913 13.564 1.033 20.445 0.393 38.491-3.567 68.832-35.166 68.832-74.441 0-41.237-33.429-74.667-74.668-74.667-22.892 0-44.783 10.462-58.618 25.152-21.979 23.33-33.78 49.515-33.78 91.959 0 74.657 52.405 141.583 128.653 174.66zM661.986 643.772l19.042-29.389c-71.151-38.498-69.905-100.331-69.905-113.668 6.618 0.913 13.564 1.033 20.446 0.393 38.49-3.567 68.83-35.166 68.83-74.441 0-41.237-33.429-74.667-74.667-74.667-22.891 0-44.783 10.462-58.62 25.152-21.978 23.33-33.779 49.515-33.779 91.959 0 74.657 52.407 141.583 128.653 174.66z" />
<glyph unicode="&#xeac9;" glyph-name="chat-smile-2-fill" d="M311.090 71.501l-225.757-50.167 50.168 225.758c-32.016 59.87-50.168 128.269-50.168 200.909 0 235.642 191.025 426.667 426.667 426.667 235.639 0 426.667-191.025 426.667-426.667 0-235.639-191.027-426.667-426.667-426.667-72.64 0-141.039 18.15-200.91 50.167zM298.667 448c0-117.82 95.513-213.333 213.333-213.333s213.333 95.514 213.333 213.333h-85.333c0-70.694-57.306-128-128-128s-128 57.306-128 128h-85.333z" />
<glyph unicode="&#xeaca;" glyph-name="chat-smile-2-line" d="M311.090 71.501l-225.757-50.167 50.168 225.758c-32.016 59.87-50.168 128.269-50.168 200.909 0 235.642 191.025 426.667 426.667 426.667 235.639 0 426.667-191.025 426.667-426.667 0-235.639-191.027-426.667-426.667-426.667-72.64 0-141.039 18.15-200.91 50.167zM323.445 161.664l27.884-14.912c48.99-26.197 103.732-40.085 160.671-40.085 188.514 0 341.333 152.819 341.333 341.333s-152.819 341.333-341.333 341.333c-188.513 0-341.333-152.82-341.333-341.333 0-56.939 13.888-111.68 40.085-160.67l14.911-27.883-27.938-125.722 125.721 27.938zM298.667 448h85.333c0-70.694 57.306-128 128-128s128 57.306 128 128h85.333c0-117.82-95.514-213.333-213.333-213.333s-213.333 95.514-213.333 213.333z" />
<glyph unicode="&#xeacb;" glyph-name="chat-smile-3-fill" d="M512 874.667c235.639 0 426.667-191.025 426.667-426.667 0-235.639-191.027-426.667-426.667-426.667h-426.667l124.968 124.966c-77.211 77.214-124.968 183.881-124.968 301.7 0 235.642 191.025 426.667 426.667 426.667zM682.667 405.333h-341.333c0-94.255 76.41-170.667 170.667-170.667 94.255 0 170.667 76.412 170.667 170.667z" />
<glyph unicode="&#xeacc;" glyph-name="chat-smile-3-line" d="M85.333 448c0 235.642 191.025 426.667 426.667 426.667 235.639 0 426.667-191.025 426.667-426.667 0-235.639-191.027-426.667-426.667-426.667h-426.667l124.968 124.966c-77.211 77.214-124.968 183.881-124.968 301.7zM291.346 106.667h220.654c188.514 0 341.333 152.819 341.333 341.333s-152.819 341.333-341.333 341.333c-188.513 0-341.333-152.82-341.333-341.333 0-91.836 36.32-177.702 99.974-241.361l60.34-60.339-39.634-39.633zM341.333 405.333h341.333c0-94.255-76.412-170.667-170.667-170.667-94.257 0-170.667 76.412-170.667 170.667z" />
<glyph unicode="&#xeacd;" glyph-name="chat-smile-fill" d="M275.394 149.333l-190.061-149.333v789.333c0 23.564 19.103 42.667 42.667 42.667h768c23.565 0 42.667-19.103 42.667-42.667v-597.333c0-23.565-19.102-42.667-42.667-42.667h-620.606zM298.667 533.333c0-117.82 95.513-213.333 213.333-213.333s213.333 95.514 213.333 213.333h-85.333c0-70.694-57.306-128-128-128s-128 57.306-128 128h-85.333z" />
<glyph unicode="&#xeace;" glyph-name="chat-smile-line" d="M275.394 149.333l-190.061-149.333v789.333c0 23.564 19.103 42.667 42.667 42.667h768c23.565 0 42.667-19.103 42.667-42.667v-597.333c0-23.565-19.102-42.667-42.667-42.667h-620.606zM245.88 234.667h607.453v512h-682.667v-571.098l75.214 59.098zM298.667 533.333h85.333c0-70.694 57.306-128 128-128s128 57.306 128 128h85.333c0-117.82-95.514-213.333-213.333-213.333s-213.333 95.514-213.333 213.333z" />
<glyph unicode="&#xeacf;" glyph-name="chat-thread-fill" d="M85.333 21.333l225.757 50.167c59.871-32.017 128.27-50.167 200.91-50.167 235.639 0 426.667 191.027 426.667 426.667 0 235.642-191.027 426.667-426.667 426.667-235.642 0-426.667-191.025-426.667-426.667 0-72.64 18.152-141.039 50.168-200.909l-50.168-225.758zM659.145 661.333l-7.467-85.344h73.655v-85.332h-81.122l-7.467-85.333h88.589v-85.333h-96.051l-7.467-85.325h-85.658l7.462 85.325h-85.658l-7.467-85.325h-85.658l7.465 85.325h-73.636v85.333h81.102l7.466 85.333h-88.567v85.332h96.033l7.467 85.344h85.659l-7.467-85.344h85.662l7.467 85.344h85.658zM472.892 490.658l-7.462-85.333h85.658l7.467 85.333h-85.662z" />
<glyph unicode="&#xead0;" glyph-name="chat-thread-line" d="M85.333 21.333l225.757 50.167c59.871-32.017 128.27-50.167 200.91-50.167 235.639 0 426.667 191.027 426.667 426.667 0 235.642-191.027 426.667-426.667 426.667-235.642 0-426.667-191.025-426.667-426.667 0-72.64 18.152-141.039 50.168-200.909l-50.168-225.758zM351.329 146.752l-27.884 14.912-125.721-27.938 27.938 125.722-14.911 27.883c-26.197 48.99-40.085 103.731-40.085 160.67 0 188.513 152.82 341.333 341.333 341.333s341.333-152.82 341.333-341.333c0-188.514-152.819-341.333-341.333-341.333-56.939 0-111.681 13.888-160.671 40.085zM659.145 661.333h-85.658l-7.467-85.344h-85.662l7.467 85.344h-85.659l-7.467-85.344h-96.033v-85.332h88.567l-7.466-85.333h-81.102v-85.333h73.636l-7.465-85.325h85.658l7.467 85.325h85.658l-7.462-85.325h85.658l7.467 85.325h96.051v85.333h-88.589l7.467 85.333h81.122v85.332h-73.655l7.467 85.344zM472.892 490.658h85.662l-7.467-85.333h-85.658l7.462 85.333z" />
<glyph unicode="&#xead9;" glyph-name="checkbox-circle-fill" d="M512 21.333c-235.642 0-426.667 191.027-426.667 426.667 0 235.642 191.025 426.667 426.667 426.667 235.639 0 426.667-191.025 426.667-426.667 0-235.639-191.027-426.667-426.667-426.667zM469.444 277.333l301.7 301.699-60.339 60.34-241.361-241.36-120.678 120.683-60.34-60.343 181.018-181.018z" />
<glyph unicode="&#xeada;" glyph-name="checkbox-circle-line" d="M512 21.333c-235.642 0-426.667 191.027-426.667 426.667 0 235.642 191.025 426.667 426.667 426.667 235.639 0 426.667-191.025 426.667-426.667 0-235.639-191.027-426.667-426.667-426.667zM512 106.667c188.514 0 341.333 152.819 341.333 341.333s-152.819 341.333-341.333 341.333c-188.513 0-341.333-152.82-341.333-341.333s152.82-341.333 341.333-341.333zM469.444 277.333l-181.018 181.018 60.34 60.343 120.678-120.683 241.361 241.36 60.339-60.34-301.7-301.699z" />
<glyph unicode="&#xeadf;" glyph-name="checkbox-multiple-blank-fill" d="M298.658 661.333v170.667c0 23.564 19.102 42.667 42.667 42.667h554.667c23.565 0 42.667-19.103 42.667-42.667v-554.667c0-23.565-19.102-42.667-42.667-42.667h-170.658v-170.347c0-23.74-19.157-42.987-42.987-42.987h-554.036c-23.741 0-42.977 19.153-42.977 42.987l0.118 554.028c0.005 23.74 19.159 42.986 42.986 42.986h170.22zM383.991 661.333h298.364c23.735 0 42.978-19.154 42.978-42.986v-298.348h127.991v469.333h-469.334v-128z" />
<glyph unicode="&#xeae0;" glyph-name="checkbox-multiple-blank-line" d="M298.658 661.333v170.667c0 23.564 19.102 42.667 42.667 42.667h554.667c23.565 0 42.667-19.103 42.667-42.667v-554.667c0-23.565-19.102-42.667-42.667-42.667h-170.658v-170.347c0-23.74-19.157-42.987-42.987-42.987h-554.036c-23.741 0-42.977 19.153-42.977 42.987l0.118 554.028c0.005 23.74 19.159 42.986 42.986 42.986h170.22zM383.991 661.333h298.364c23.735 0 42.978-19.154 42.978-42.986v-298.348h127.991v469.333h-469.334v-128zM170.775 576l-0.1-469.333h469.324v469.333h-469.225z" />
<glyph unicode="&#xeae1;" glyph-name="checkbox-multiple-fill" d="M298.658 661.333v170.667c0 23.564 19.102 42.667 42.667 42.667h554.667c23.565 0 42.667-19.103 42.667-42.667v-554.667c0-23.565-19.102-42.667-42.667-42.667h-170.658v-170.347c0-23.74-19.157-42.987-42.987-42.987h-554.036c-23.741 0-42.977 19.153-42.977 42.987l0.118 554.028c0.005 23.74 19.159 42.986 42.986 42.986h170.22zM383.991 661.333h298.364c23.735 0 42.978-19.154 42.978-42.986v-298.348h127.991v469.333h-469.334v-128zM362.77 192l241.36 241.361-60.339 60.339-181.021-181.022-90.51 90.509-60.34-60.339 150.849-150.848z" />
<glyph unicode="&#xeae2;" glyph-name="checkbox-multiple-line" d="M298.658 661.333v170.667c0 23.564 19.102 42.667 42.667 42.667h554.667c23.565 0 42.667-19.103 42.667-42.667v-554.667c0-23.565-19.102-42.667-42.667-42.667h-170.658v-170.347c0-23.74-19.157-42.987-42.987-42.987h-554.036c-23.741 0-42.977 19.153-42.977 42.987l0.118 554.028c0.005 23.74 19.159 42.986 42.986 42.986h170.22zM383.991 661.333h298.364c23.735 0 42.978-19.154 42.978-42.986v-298.348h127.991v469.333h-469.334v-128zM640 576h-469.225l-0.1-469.333h469.324v469.333zM362.77 192l-150.849 150.848 60.34 60.339 90.51-90.509 181.021 181.022 60.339-60.339-241.36-241.361z" />
<glyph unicode="&#xeae3;" glyph-name="check-double-fill" d="M495.019 372.911l60.245-60.245 361.195 361.199 60.343-60.34-421.538-421.538-271.531 271.531 60.34 60.339 150.946-150.946zM495.091 493.559l211.311 211.316 60.173-60.172-211.311-211.312-60.173 60.169zM374.484 252.275l-60.289-60.288-271.529 271.531 60.34 60.339 60.289-60.292-0.051-0.047 211.24-211.243z" />
<glyph unicode="&#xeae6;" glyph-name="check-line" d="M426.654 312.708l392.209 392.208 60.339-60.34-452.548-452.547-271.529 271.526 60.34 60.339 211.189-211.187z" />
<glyph unicode="&#xeae9;" glyph-name="chrome-fill" d="M419.296 31.433c-191.067 42.33-333.963 212.762-333.963 416.567 0 77.743 20.793 150.631 57.121 213.404l182.746-316.525c36.355-65.715 106.381-110.212 186.799-110.212 8.631 0 17.143 0.512 25.506 1.51l-118.21-204.745zM512 21.333l182.903 316.796c19.319 32.094 30.43 69.683 30.43 109.871 0 48.026-15.868 92.345-42.65 128h236.45c12.689-40.407 19.533-83.405 19.533-128 0-235.639-191.027-426.667-426.667-426.667zM621.743 382.080c-22.391-37.197-63.164-62.080-109.743-62.080-47.373 0-88.736 25.737-110.87 63.991l-1.21 2.138c-10.145 18.338-15.92 39.428-15.92 61.871 0 70.694 57.306 128 128 128s128-57.306 128-128c0-23.317-6.234-45.18-17.131-64.009l-1.126-1.911zM197.641 736.487c77.99 84.939 189.957 138.18 314.359 138.18 157.926 0 295.812-85.802 369.587-213.333h-369.587c-88.049 0-163.639-53.341-196.219-129.472l-118.141 204.625z" />
<glyph unicode="&#xeaea;" glyph-name="chrome-line" d="M442.219 113.805l82.33 142.601c-4.147-0.269-8.333-0.405-12.548-0.405-72.375 0-135.4 40.047-168.119 99.191l-139.311 241.295c-21.723-44.894-33.903-95.268-33.903-148.486 0-164.599 116.507-301.986 271.552-334.195zM537.161 107.58c176.764 12.881 316.173 160.371 316.173 340.42 0 37.252-5.969 73.109-16.998 106.667h-164.668c20.425-30.507 32.333-67.196 32.333-106.667 0-36.169-10.001-69.999-27.388-98.88l-139.452-241.54zM603.452 393.067l0.926 1.6c9.092 15.684 14.289 33.903 14.289 53.333 0 58.91-47.757 106.667-106.667 106.667s-106.667-47.757-106.667-106.667c0-18.701 4.813-36.279 13.267-51.558l1.024-1.775c18.43-31.885 52.896-53.333 92.376-53.333 38.818 0 72.794 20.736 91.452 51.733zM257.503 675.468l82.273-142.502c31.348 63.419 96.691 107.034 172.224 107.034h282.253c-61.44 90.145-164.932 149.333-282.253 149.333-101.134 0-191.994-43.983-254.497-113.865zM512 21.333c-235.642 0-426.667 191.027-426.667 426.667 0 235.642 191.025 426.667 426.667 426.667 235.639 0 426.667-191.025 426.667-426.667 0-235.639-191.027-426.667-426.667-426.667z" />
<glyph unicode="&#xeaef;" glyph-name="clipboard-fill" d="M256 789.333v-170.667h512v170.667h85.615c23.407 0 42.385-18.985 42.385-42.385v-683.23c0-23.407-18.982-42.385-42.385-42.385h-683.23c-23.409 0-42.385 18.982-42.385 42.385v683.23c0 23.409 18.985 42.385 42.385 42.385h85.615zM341.333 874.667h341.333v-170.667h-341.333v170.667z" />
<glyph unicode="&#xeaf0;" glyph-name="clipboard-line" d="M298.667 789.333v85.333h426.667v-85.333h128.282c23.407 0 42.385-18.985 42.385-42.385v-683.23c0-23.407-18.982-42.385-42.385-42.385h-683.23c-23.409 0-42.385 18.982-42.385 42.385v683.23c0 23.409 18.985 42.385 42.385 42.385h128.282zM298.667 704h-85.333v-597.333h597.333v597.333h-85.333v-85.333h-426.667v85.333zM384 789.333v-85.333h256v85.333h-256z" />
<glyph unicode="&#xeaf5;" glyph-name="close-circle-fill" d="M512 21.333c-235.642 0-426.667 191.027-426.667 426.667 0 235.642 191.025 426.667 426.667 426.667 235.639 0 426.667-191.025 426.667-426.667 0-235.639-191.027-426.667-426.667-426.667zM512 508.339l-120.68 120.68-60.34-60.34 120.68-120.68-120.68-120.678 60.34-60.339 120.68 120.678 120.678-120.678 60.339 60.339-120.678 120.678 120.678 120.68-60.339 60.34-120.678-120.68z" />
<glyph unicode="&#xeaf6;" glyph-name="close-circle-line" d="M512 21.333c-235.642 0-426.667 191.027-426.667 426.667 0 235.642 191.025 426.667 426.667 426.667 235.639 0 426.667-191.025 426.667-426.667 0-235.639-191.027-426.667-426.667-426.667zM512 106.667c188.514 0 341.333 152.819 341.333 341.333s-152.819 341.333-341.333 341.333c-188.513 0-341.333-152.82-341.333-341.333s152.82-341.333 341.333-341.333zM512 508.339l120.678 120.68 60.339-60.34-120.678-120.68 120.678-120.678-60.339-60.339-120.678 120.678-120.68-120.678-60.34 60.339 120.68 120.678-120.68 120.68 60.34 60.34 120.68-120.68z" />
<glyph unicode="&#xeaf7;" glyph-name="closed-captioning-fill" d="M896 832c23.565 0 42.667-19.103 42.667-42.667v-682.667c0-23.565-19.102-42.667-42.667-42.667h-768c-23.564 0-42.667 19.102-42.667 42.667v682.667c0 23.564 19.103 42.667 42.667 42.667h768zM384 618.667c-94.208 0-170.667-76.459-170.667-170.667s76.459-170.667 170.667-170.667c46.933 0 89.6 19.2 120.661 50.005l-60.314 60.314c-15.441-15.437-36.774-24.986-60.348-24.986-47.147 0-85.333 38.187-85.333 85.333s38.187 85.333 85.333 85.333c23.467 0 44.727-9.387 60.386-25.028l60.318 60.314c-30.895 30.916-73.579 50.048-120.704 50.048zM682.667 618.667c-94.208 0-170.667-76.459-170.667-170.667s76.459-170.667 170.667-170.667c47.104 0 89.771 19.115 120.661 50.005l-60.314 60.314c-15.441-15.437-36.774-24.986-60.348-24.986-47.147 0-85.333 38.187-85.333 85.333s38.187 85.333 85.333 85.333c23.595 0 44.945-9.562 60.386-25.028l60.318 60.314c-30.895 30.916-73.579 50.048-120.704 50.048z" />
<glyph unicode="&#xeaf8;" glyph-name="closed-captioning-line" d="M896 832c23.565 0 42.667-19.103 42.667-42.667v-682.667c0-23.565-19.102-42.667-42.667-42.667h-768c-23.564 0-42.667 19.102-42.667 42.667v682.667c0 23.564 19.103 42.667 42.667 42.667h768zM853.333 746.667h-682.667v-597.333h682.667v597.333zM384 618.667c47.125 0 89.809-19.132 120.704-50.048l-60.318-60.314c-15.441 15.467-36.792 25.028-60.386 25.028-47.147 0-85.333-38.187-85.333-85.333s38.187-85.333 85.333-85.333c23.573 0 44.907 9.549 60.348 24.986l60.314-60.314c-30.891-30.891-73.557-50.005-120.661-50.005-94.208 0-170.667 76.459-170.667 170.667s76.459 170.667 170.667 170.667zM682.667 618.667c47.125 0 89.809-19.132 120.704-50.048l-60.318-60.314c-15.441 15.467-36.791 25.028-60.386 25.028-47.147 0-85.333-38.187-85.333-85.333s38.187-85.333 85.333-85.333c23.573 0 44.907 9.549 60.348 24.986l60.314-60.314c-30.891-30.891-73.557-50.005-120.661-50.005-94.208 0-170.667 76.459-170.667 170.667s76.459 170.667 170.667 170.667z" />
<glyph unicode="&#xeafb;" glyph-name="close-large-line" d="M451.665 448l-332.498 332.499 60.34 60.34 332.498-332.495 332.497 332.495 60.339-60.34-332.497-332.499 332.497-332.493-60.339-60.343-332.497 332.497-332.498-332.497-60.34 60.343 332.498 332.493z" />
<glyph unicode="&#xeafc;" glyph-name="close-line" d="M511.987 508.309l211.191 211.191 60.339-60.34-211.191-211.19 211.191-211.187-60.339-60.339-211.191 211.187-211.189-211.187-60.34 60.339 211.19 211.187-211.19 211.19 60.34 60.34 211.189-211.191z" />
<glyph unicode="&#xeafd;" glyph-name="cloud-fill" d="M725.333 661.333c-146.325 0-271.151-92.076-319.687-221.453l79.921-29.969c36.403 97.033 130.018 166.089 239.765 166.089 29.794 0 58.398-5.089 84.992-14.446 99.605-35.048 171.008-129.964 171.008-241.554 0-141.385-114.615-256-256-256h-426.667c-141.385 0-256 114.615-256 256 0 111.59 71.401 206.507 171.010 241.554-0.228 4.786-0.343 9.603-0.343 14.446 0 164.949 133.718 298.667 298.667 298.667 138.325 0 254.69-94.037 288.649-221.67-24.23 5.457-49.438 8.337-75.315 8.337z" />
<glyph unicode="&#xeafe;" glyph-name="cloud-line" d="M512 874.667c164.949 0 298.667-133.718 298.667-298.667 0-4.843-0.115-9.659-0.341-14.446 99.605-35.048 171.008-129.964 171.008-241.554 0-141.385-114.615-256-256-256h-426.667c-141.385 0-256 114.615-256 256 0 111.59 71.401 206.507 171.010 241.554-0.228 4.786-0.343 9.603-0.343 14.446 0 164.949 133.718 298.667 298.667 298.667zM512 789.333c-117.821 0-213.333-95.513-213.333-213.333 0-3.476 0.082-6.939 0.247-10.387l3.023-63.465-59.938-21.090c-67.73-23.829-113.998-88.051-113.998-161.058 0-94.255 76.41-170.667 170.667-170.667h426.667c94.255 0 170.667 76.412 170.667 170.667 0 94.293-76.373 170.667-170.667 170.667-75.392 0-139.362-48.883-161.954-116.681l-80.973 26.991c33.882 101.7 129.86 175.023 242.927 175.023 0 117.821-95.514 213.333-213.333 213.333z" />
<glyph unicode="&#xeb07;" glyph-name="code-block" d="M145.679 704.002l97.83 97.83-60.34 60.34-158.17-158.17 158.17-158.17 60.34 60.34-97.83 97.83zM409 704.002l-97.83 97.83 60.34 60.34 158.171-158.17-158.171-158.17-60.34 60.34 97.83 97.83zM597.342 832.002h298.667c23.561 0 42.667-19.103 42.667-42.667v-682.669c0-23.561-19.106-42.667-42.667-42.667h-768.002c-23.564 0-42.667 19.106-42.667 42.667v341.333h85.333v-298.667h682.669v597.335h-256v85.333z" />
<glyph unicode="&#xeb08;" glyph-name="code-box-fill" d="M128 832h768c23.565 0 42.667-19.103 42.667-42.667v-682.667c0-23.565-19.102-42.667-42.667-42.667h-768c-23.564 0-42.667 19.102-42.667 42.667v682.667c0 23.564 19.103 42.667 42.667 42.667zM702.485 297.152l150.848 150.848-150.848 150.849-60.339-60.34 90.509-90.51-90.509-90.509 60.339-60.339zM291.346 448l90.51 90.51-60.34 60.34-150.849-150.849 150.849-150.848 60.34 60.339-90.51 90.509zM479.757 234.667l155.294 426.667h-90.807l-155.295-426.667h90.809z" />
<glyph unicode="&#xeb09;" glyph-name="code-box-line" d="M128 832h768c23.565 0 42.667-19.103 42.667-42.667v-682.667c0-23.565-19.102-42.667-42.667-42.667h-768c-23.564 0-42.667 19.102-42.667 42.667v682.667c0 23.564 19.103 42.667 42.667 42.667zM170.667 746.667v-597.333h682.667v597.333h-682.667zM853.333 448l-150.848-150.848-60.339 60.339 90.509 90.509-90.509 90.51 60.339 60.34 150.848-150.849zM291.346 448l90.51-90.509-60.34-60.339-150.849 150.848 150.849 150.849 60.34-60.34-90.51-90.51zM479.757 234.667h-90.809l155.295 426.667h90.807l-155.294-426.667z" />
<glyph unicode="&#xeb0a;" glyph-name="code-fill" d="M981.333 448l-301.7-301.7-60.339 60.339 241.361 241.361-241.361 241.358 60.339 60.34 301.7-301.698zM163.346 448l241.359-241.361-60.34-60.339-301.699 301.7 301.699 301.698 60.34-60.34-241.359-241.358z" />
<glyph unicode="&#xeb0c;" glyph-name="codepen-fill" d="M512 524.723l-115.081-76.723 115.081-76.723 115.081 76.723-115.081 76.723zM704 499.277l115.081 76.723-264.414 176.276v-153.442l149.333-99.558zM853.333 496.277l-72.414-48.277 72.414-48.277v96.555zM704 396.723l-149.333-99.558v-153.442l264.414 176.277-115.081 76.723zM469.333 598.834v153.442l-264.415-176.276 115.081-76.723 149.333 99.558zM204.919 320l264.415-176.277v153.442l-149.333 99.558-115.081-76.723zM243.081 448l-72.415 48.277v-96.555l72.415 48.277zM85.333 576c0 14.266 7.13 27.587 18.999 35.501l384 256c14.332 9.554 33.003 9.554 47.334 0l384-256c11.87-7.913 18.999-21.235 18.999-35.501v-256c0-14.268-7.13-27.588-18.999-35.503l-384-256c-14.332-9.553-33.003-9.553-47.334 0l-384 256c-11.87 7.915-18.999 21.235-18.999 35.503v256z" />
<glyph unicode="&#xeb0f;" glyph-name="code-s-line" d="M1024 448l-241.361-241.357-60.339 60.339 181.022 181.018-181.022 181.020 60.339 60.34 241.361-241.359zM120.68 448l181.019-181.018-60.34-60.339-241.359 241.357 241.359 241.359 60.34-60.34-181.019-181.020z" />
<glyph unicode="&#xeb10;" glyph-name="code-s-slash-fill" d="M1024 448l-241.361-241.361-60.339 60.343 181.022 181.018-181.022 181.019 60.339 60.34 241.361-241.359zM120.68 448l181.019-181.018-60.34-60.343-241.359 241.361 241.359 241.359 60.34-60.34-181.019-181.019zM417.641 64h-90.81l279.531 768h90.807l-279.529-768z" />
<glyph unicode="&#xeb13;" glyph-name="coin-fill" d="M981.542 447.885v-85.333c0-141.389-210.129-256-469.333-256-254.577 0-461.814 110.558-469.134 248.448l-0.2 7.552v85.333c0-141.389 210.128-256 469.334-256 259.204 0 469.333 114.611 469.333 256zM512.209 789.216c259.204 0 469.333-114.615 469.333-255.998 0-141.389-210.129-256-469.333-256-259.206 0-469.334 114.611-469.334 256 0 141.383 210.128 255.998 469.334 255.998z" />
<glyph unicode="&#xeb14;" glyph-name="coin-line" d="M512.209 789.216c259.204 0 469.333-114.615 469.333-255.998v-170.667c0-141.389-210.129-256-469.333-256-254.577 0-461.814 110.558-469.134 248.448l-0.2 7.552v170.667c0 141.383 210.128 255.998 469.334 255.998zM512.209 277.218c-158.74 0-299.073 42.982-384.010 108.779l0.009-23.445c0-80.307 165.659-170.667 384.001-170.667 213.79 0 377.075 86.63 383.787 165.632l0.213 5.035 0.051 23.479c-84.932-65.813-225.284-108.813-384.051-108.813zM512.209 703.883c-218.342 0-384.001-90.359-384.001-170.665s165.659-170.667 384.001-170.667 384 90.359 384 170.667c0 80.305-165.658 170.665-384 170.665z" />
<glyph unicode="&#xeb17;" glyph-name="collage-fill" d="M477.393 394.061l58.991-334.583-365.707-0.030c-23.564 0-42.667 19.102-42.667 42.667l-0.031 230.302 349.414 61.645zM853.342 827.448c23.565 0 42.667-19.103 42.667-42.667v-682.668c0-23.565-19.102-42.667-42.667-42.667l-230.302 0.030-135.424 768.002 365.726-0.031zM400.96 827.479l61.615-349.378-334.596-59.029 0.031 365.71c0 23.564 19.102 42.667 42.667 42.667l230.284 0.031z" />
<glyph unicode="&#xeb18;" glyph-name="collage-line" d="M853.333 827.448c23.565 0 42.667-19.102 42.667-42.667v-682.667c0-23.565-19.102-42.667-42.667-42.667h-682.667c-23.564 0-42.667 19.102-42.667 42.667v682.667c0 23.564 19.103 42.667 42.667 42.667h682.667zM477.389 394.022l-264.055-46.532v-202.709h307.968l-43.913 249.242zM810.667 742.115h-308.011l105.301-597.334h202.709v597.334zM416 742.115h-202.667v-307.968l249.237 43.913-46.571 264.056z" />
<glyph unicode="&#xeb19;" glyph-name="collapse-diagonal-2-fill" d="M149.337 490.662h320.001v320.001l-129.831-129.83-138.667 138.667-60.34-60.34 138.667-138.667-129.83-129.831zM874.667 405.333h-320v-320l129.83 129.83 138.667-138.667 60.339 60.339-138.667 138.667 129.83 129.83z" />
<glyph unicode="&#xeb1b;" glyph-name="collapse-diagonal-fill" d="M874.667 490.662h-320v320.001l129.83-129.83 138.667 138.667 60.339-60.34-138.667-138.667 129.83-129.831zM149.337 405.333h320.001v-320l-129.831 129.83-138.667-138.667-60.34 60.339 138.667 138.667-129.83 129.83z" />
<glyph unicode="&#xeb25;" glyph-name="compass-3-fill" d="M512 21.333c-235.642 0-426.667 191.027-426.667 426.667 0 235.642 191.025 426.667 426.667 426.667 235.639 0 426.667-191.025 426.667-426.667 0-235.639-191.027-426.667-426.667-426.667zM704 640l-277.333-106.667-106.667-277.333 277.333 106.667 106.667 277.333zM512 405.333c-23.565 0-42.667 19.102-42.667 42.667s19.102 42.667 42.667 42.667c23.565 0 42.667-19.102 42.667-42.667s-19.102-42.667-42.667-42.667z" />
<glyph unicode="&#xeb26;" glyph-name="compass-3-line" d="M512 21.333c-235.642 0-426.667 191.027-426.667 426.667 0 235.642 191.025 426.667 426.667 426.667 235.639 0 426.667-191.025 426.667-426.667 0-235.639-191.027-426.667-426.667-426.667zM512 106.667c188.514 0 341.333 152.819 341.333 341.333s-152.819 341.333-341.333 341.333c-188.513 0-341.333-152.82-341.333-341.333s152.82-341.333 341.333-341.333zM704 640l-106.667-277.333-277.333-106.667 106.667 277.333 277.333 106.667zM512 405.333c23.565 0 42.667 19.102 42.667 42.667s-19.102 42.667-42.667 42.667c-23.565 0-42.667-19.102-42.667-42.667s19.102-42.667 42.667-42.667z" />
<glyph unicode="&#xeb29;" glyph-name="compass-discover-fill" d="M554.667 21.333c-235.642 0-426.667 191.027-426.667 426.667 0 235.642 191.025 426.667 426.667 426.667 235.639 0 426.667-191.025 426.667-426.667 0-235.639-191.027-426.667-426.667-426.667zM341.333 469.333l170.667-64 64-170.756 149.333 384.090-384-149.333z" />
<glyph unicode="&#xeb2a;" glyph-name="compass-discover-line" d="M512 21.333c-235.642 0-426.667 191.027-426.667 426.667 0 235.642 191.025 426.667 426.667 426.667 235.639 0 426.667-191.025 426.667-426.667 0-235.639-191.027-426.667-426.667-426.667zM512 106.667c188.514 0 341.333 152.819 341.333 341.333s-152.819 341.333-341.333 341.333c-188.513 0-341.333-152.82-341.333-341.333s152.82-341.333 341.333-341.333zM298.667 469.333l384 149.333-149.333-384.090-64 170.756-170.667 64z" />
<glyph unicode="&#xeb31;" glyph-name="computer-fill" d="M554.667 192v-85.333h170.667v-85.333h-426.667v85.333h170.667v85.333h-341.683c-23.371 0-42.317 19.153-42.317 42.987v554.028c0 23.74 19.427 42.986 42.317 42.986h768.7c23.373 0 42.317-19.154 42.317-42.986v-554.028c0-23.74-19.426-42.987-42.317-42.987h-341.683z" />
<glyph unicode="&#xeb32;" glyph-name="computer-line" d="M170.667 277.333h682.667v469.333h-682.667v-469.333zM554.667 192v-85.333h170.667v-85.333h-426.667v85.333h170.667v85.333h-341.683c-23.371 0-42.317 19.153-42.317 42.987v554.028c0 23.74 19.427 42.986 42.317 42.986h768.7c23.373 0 42.317-19.154 42.317-42.986v-554.028c0-23.74-19.426-42.987-42.317-42.987h-341.683z" />
<glyph unicode="&#xeb3b;" glyph-name="contacts-fill" d="M85.333 21.333c0 188.514 152.82 341.333 341.333 341.333s341.333-152.819 341.333-341.333h-682.667zM426.667 405.333c-141.44 0-256 114.56-256 256s114.56 256 256 256c141.44 0 256-114.56 256-256s-114.56-256-256-256zM853.333 234.667h170.667v-85.333h-170.667v85.333zM725.333 448h298.667v-85.333h-298.667v85.333zM810.667 661.333h213.333v-85.333h-213.333v85.333z" />
<glyph unicode="&#xeb3c;" glyph-name="contacts-line" d="M810.667 661.333h213.333v-85.333h-213.333v85.333zM725.333 448h298.667v-85.333h-298.667v85.333zM853.333 234.667h170.667v-85.333h-170.667v85.333zM85.333 21.333c0 188.514 152.82 341.333 341.333 341.333s341.333-152.819 341.333-341.333h-85.333c0 141.385-114.615 256-256 256s-256-114.615-256-256h-85.333zM426.667 405.333c-141.44 0-256 114.56-256 256s114.56 256 256 256c141.44 0 256-114.56 256-256s-114.56-256-256-256zM426.667 490.667c94.293 0 170.667 76.373 170.667 170.667s-76.373 170.667-170.667 170.667c-94.293 0-170.667-76.373-170.667-170.667s76.373-170.667 170.667-170.667z" />
<glyph unicode="&#xeb40;" glyph-name="contract-left-right-fill" d="M213.333 192l256 256-256 256v-512zM810.667 704l-256-256 256-256v512z" />
<glyph unicode="&#xeb45;" glyph-name="contract-up-down-fill" d="M768 746.667l-256-256-256 256h512zM768 149.333l-256 256-256-256h512z" />
</font>
</defs>
</svg>
