<svg width="4" height="6" viewBox="0 0 4 6" fill="none" xmlns="http://www.w3.org/2000/svg">
<path id="Vector" d="M0.753392 5.86793C0.679937 5.78334 0.638672 5.66863 0.638672 5.54902C0.638672 5.42941 0.679937 5.3147 0.753392 5.23011L2.6929 2.99728L0.753391 0.764445C0.682018 0.679371 0.642525 0.565428 0.643417 0.447157C0.64431 0.328886 0.685518 0.21575 0.758164 0.132117C0.830811 0.0484834 0.929084 0.00104474 1.03182 1.7149e-05C1.13455 -0.00101092 1.23353 0.044455 1.30742 0.126623L3.52395 2.67837C3.59741 2.76295 3.63867 2.87767 3.63867 2.99728C3.63867 3.11689 3.59741 3.2316 3.52395 3.31619L1.30743 5.86793C1.23395 5.95249 1.13431 6 1.03041 6C0.926512 6 0.826869 5.95249 0.753392 5.86793Z" fill="#828BAD" fill-opacity="0.3"/>
</svg>
