<svg width="18" height="18" viewBox="0 0 18 18" fill="none" xmlns="http://www.w3.org/2000/svg">
<path d="M11.9107 9.09132C11.5794 9.09132 11.3107 9.35994 11.3107 9.69131C11.3107 10.0227 11.5794 10.2913 11.9107 10.2913H14.0925C14.4239 10.2913 14.6925 10.0227 14.6925 9.69131C14.6925 9.35994 14.4239 9.09132 14.0925 9.09132H11.9107Z" fill="white"/>
<path fill-rule="evenodd" clip-rule="evenodd" d="M15.1196 2.10237C15.1815 2.45754 15.1965 2.87961 15.2007 3.3625C15.2701 3.3987 15.3382 3.43724 15.4051 3.47825C16.0241 3.85755 16.5445 4.37795 16.9238 4.9969C17.3414 5.67839 17.4933 6.4682 17.556 7.47207C17.6016 8.20237 17.6016 9.09064 17.6016 10.1816V10.2042C17.6016 10.8298 17.6016 11.3871 17.5934 11.8831C17.5678 13.4254 17.4679 14.5159 16.9238 15.4039C16.5445 16.0228 16.0241 16.5432 15.4051 16.9225C14.8141 17.2847 14.1436 17.4462 13.3248 17.524C12.5214 17.6004 11.5159 17.6004 10.2332 17.6004H7.77014C6.48746 17.6004 5.48186 17.6004 4.67852 17.524C3.85968 17.4462 3.1892 17.2847 2.59815 16.9225C1.97919 16.5432 1.45879 16.0228 1.07949 15.4039C0.717294 14.8128 0.555868 14.1423 0.478013 13.3235C0.40163 12.5202 0.401634 11.5146 0.401639 10.2319L0.401703 9.8113C0.391161 9.41596 0.394398 8.974 0.397889 8.49747C0.399729 8.2463 0.401639 7.98552 0.401639 7.7169L0.401639 7.68221C0.401632 6.31242 0.401628 5.23736 0.490297 4.38414C0.580735 3.5139 0.768798 2.80409 1.19294 2.19548C1.4492 1.82777 1.76008 1.50337 2.11474 1.23474C2.70539 0.787355 3.39657 0.588471 4.23946 0.493264C5.06181 0.400379 6.09633 0.400386 7.40681 0.400394L11.7813 0.400392C12.4201 0.400364 12.9616 0.400341 13.3933 0.460848C13.8543 0.525475 14.2775 0.669244 14.6161 1.02222C14.9099 1.3286 15.0492 1.69822 15.1196 2.10237ZM11.7391 1.60039C12.4316 1.60039 12.8881 1.60178 13.2267 1.64923C13.5453 1.69389 13.6693 1.7687 13.7501 1.85289C13.8247 1.93075 13.8921 2.0483 13.9374 2.30844C13.9678 2.48238 13.9843 2.69498 13.9931 2.96695C13.6629 2.90651 13.3065 2.86927 12.9183 2.84531C12.1903 2.80039 11.3056 2.80039 10.2202 2.80039H7.77015C6.48744 2.80039 5.48187 2.80039 4.67852 2.87677C3.85968 2.95462 3.1892 3.11605 2.59815 3.47825C2.27952 3.6735 1.98701 3.90615 1.72642 4.17038C1.81423 3.58852 1.95803 3.19643 2.17745 2.88158C2.36271 2.61574 2.58624 2.38298 2.83929 2.19131C3.18947 1.92607 3.63975 1.76863 4.37415 1.68568C5.12131 1.60129 6.08809 1.60039 7.4441 1.60039H11.7391ZM3.22514 4.50142C3.59596 4.27418 4.06111 4.14088 4.79211 4.07138C5.53204 4.00103 6.48065 4.00039 7.80164 4.00039H10.2016C11.3093 4.00039 12.1576 4.00065 12.8444 4.04304C13.5307 4.08538 14.0104 4.16793 14.3886 4.31155C14.5303 4.36535 14.6585 4.42808 14.7781 4.50142C15.2356 4.78177 15.6203 5.16641 15.9006 5.6239C16.0979 5.94585 16.2236 6.33719 16.299 6.9095H11.9107C10.3744 6.9095 9.12891 8.15496 9.12891 9.69132C9.12891 11.2277 10.3744 12.4731 11.9107 12.4731H16.3771C16.3309 13.6414 16.2034 14.2828 15.9006 14.7769C15.6203 15.2344 15.2356 15.619 14.7781 15.8994C14.4073 16.1266 13.9422 16.2599 13.2112 16.3294C12.4712 16.3998 11.5226 16.4004 10.2016 16.4004H7.80164C6.48065 16.4004 5.53204 16.3998 4.79211 16.3294C4.06111 16.2599 3.59596 16.1266 3.22514 15.8994C2.76765 15.619 2.38301 15.2344 2.10266 14.7769C1.87542 14.4061 1.74213 13.9409 1.67262 13.2099C1.60227 12.47 1.60164 11.5214 1.60164 10.2004C1.60164 8.87941 1.60227 7.9308 1.67262 7.19086C1.74213 6.45986 1.87542 5.99472 2.10266 5.6239C2.38301 5.16641 2.76766 4.78177 3.22514 4.50142ZM10.3289 9.69132C10.3289 8.8177 11.0371 8.1095 11.9107 8.1095H16.3837C16.4015 8.68864 16.4016 9.37193 16.4016 10.2004C16.4016 10.5875 16.4016 10.9436 16.3998 11.2731H11.9107C11.0371 11.2731 10.3289 10.5649 10.3289 9.69132Z" fill="white"/>
</svg>
