<svg width="16" height="16" viewBox="0 0 16 16" fill="none" xmlns="http://www.w3.org/2000/svg">
<g id="Icon">
<path id="Vector" d="M6.70508 7.37012V5.49512L9.8252 8L6.70508 10.5049V8.62988H1.08008V7.37012H6.70508ZM1.98828 9.875H3.30664C3.50195 10.334 3.75586 10.7539 4.06836 11.1348C4.38086 11.5254 4.7373 11.8574 5.1377 12.1309C5.53809 12.4043 5.97754 12.6143 6.45605 12.7607C6.93457 12.917 7.43262 12.9951 7.9502 12.9951C8.64355 12.9951 9.29297 12.8633 9.89844 12.5996C10.5039 12.3359 11.0312 11.9795 11.4805 11.5303C11.9297 11.0811 12.2861 10.5537 12.5498 9.94824C12.8135 9.34277 12.9453 8.69336 12.9453 8C12.9453 7.30664 12.8184 6.65723 12.5645 6.05176C12.3008 5.44629 11.9419 4.9165 11.4878 4.4624C11.0337 4.0083 10.5039 3.64941 9.89844 3.38574C9.29297 3.12207 8.64355 2.99023 7.9502 2.99023C7.43262 2.99023 6.93457 3.06836 6.45605 3.22461C5.97754 3.38086 5.53809 3.5957 5.1377 3.86914C4.7373 4.14258 4.38086 4.46484 4.06836 4.83594C3.76562 5.2168 3.5166 5.63672 3.32129 6.0957L3.30664 6.125H1.98828C2.18359 5.49023 2.47656 4.9043 2.86719 4.36719C3.24805 3.83984 3.69971 3.38086 4.22217 2.99023C4.74463 2.59961 5.31836 2.29688 5.94336 2.08203C6.57812 1.85742 7.24707 1.74512 7.9502 1.74512C8.80957 1.74512 9.62012 1.91113 10.3818 2.24316C11.1436 2.56543 11.8076 3.00977 12.374 3.57617C12.9404 4.14258 13.3848 4.80664 13.707 5.56836C14.0391 6.33008 14.2051 7.14062 14.2051 8C14.2051 8.85938 14.0391 9.66992 13.707 10.4316C13.3848 11.1934 12.9404 11.8574 12.374 12.4238C11.8076 12.9902 11.1436 13.4346 10.3818 13.7568C9.62012 14.0889 8.80957 14.2549 7.9502 14.2549C7.24707 14.2549 6.57812 14.1426 5.94336 13.918C5.31836 13.7031 4.74463 13.4004 4.22217 13.0098C3.69971 12.6191 3.24805 12.1602 2.86719 11.6328C2.47656 11.0957 2.18359 10.5098 1.98828 9.875Z" fill="white"/>
</g>
</svg>
