<svg width="22" height="22" viewBox="0 0 22 22" fill="none" xmlns="http://www.w3.org/2000/svg">
<g id="Icon">
<path id="Vector" d="M11 1.82617C11.7591 1.82617 12.4753 1.9694 13.1484 2.25586C13.8073 2.55664 14.3874 2.9541 14.8887 3.44824C15.39 3.94238 15.7839 4.52604 16.0703 5.19922C16.3568 5.85807 16.5 6.56706 16.5 7.32617V8.25H20.1738V10.0762H19.0996L18.4121 18.4121C18.3835 18.6413 18.2832 18.8382 18.1113 19.0029C17.9395 19.1676 17.7318 19.25 17.4883 19.25H4.51172C4.26823 19.25 4.06055 19.1676 3.88867 19.0029C3.7168 18.8382 3.61654 18.6413 3.58789 18.4121L2.90039 10.0762H1.82617V8.25H5.5V7.32617C5.5 6.56706 5.64323 5.85807 5.92969 5.19922C6.21615 4.52604 6.61003 3.94238 7.11133 3.44824C7.61263 2.9541 8.19271 2.55664 8.85156 2.25586C9.52474 1.9694 10.2409 1.82617 11 1.82617ZM17.252 10.0762H4.74805L5.34961 17.4238H16.6504L17.252 10.0762ZM11.9238 11.9238V15.5762H10.0762V11.9238H11.9238ZM8.25 11.9238V15.5762H6.42383V11.9238H8.25ZM15.5762 11.9238V15.5762H13.75V11.9238H15.5762ZM11 3.67383C10.026 3.67383 9.18457 4.01042 8.47559 4.68359C7.7666 5.35677 7.39062 6.17318 7.34766 7.13281V7.1543L7.32617 7.32617V8.25H14.6738V7.32617C14.6738 6.35221 14.3372 5.51074 13.6641 4.80176C12.9909 4.09277 12.1673 3.7168 11.1934 3.67383H11Z" fill="white"/>
</g>
</svg>
