<svg width="42" height="42" viewBox="0 0 42 42" fill="none" xmlns="http://www.w3.org/2000/svg">
<path d="M26.25 3.9375C25.5251 3.9375 24.9375 4.52513 24.9375 5.25C24.9375 5.97487 25.5251 6.5625 26.25 6.5625H28C32.1076 6.5625 35.4375 9.89238 35.4375 14V15.75C35.4375 16.4749 36.0251 17.0625 36.75 17.0625C37.4749 17.0625 38.0625 16.4749 38.0625 15.75V14C38.0625 8.44264 33.5574 3.9375 28 3.9375H26.25Z" fill="#347EED"/>
<path d="M14 3.9375C8.44264 3.9375 3.9375 8.44264 3.9375 14V15.75C3.9375 16.4749 4.52513 17.0625 5.25 17.0625C5.97487 17.0625 6.5625 16.4749 6.5625 15.75V14C6.5625 9.89238 9.89238 6.5625 14 6.5625H15.75C16.4749 6.5625 17.0625 5.97487 17.0625 5.25C17.0625 4.52513 16.4749 3.9375 15.75 3.9375H14Z" fill="#347EED"/>
<path fill-rule="evenodd" clip-rule="evenodd" d="M21 12.6875C16.4091 12.6875 12.6875 16.4091 12.6875 21C12.6875 25.5909 16.4091 29.3125 21 29.3125C25.5909 29.3125 29.3125 25.5909 29.3125 21C29.3125 16.4091 25.5909 12.6875 21 12.6875ZM15.3125 21C15.3125 17.8589 17.8589 15.3125 21 15.3125C24.1411 15.3125 26.6875 17.8589 26.6875 21C26.6875 24.1411 24.1411 26.6875 21 26.6875C17.8589 26.6875 15.3125 24.1411 15.3125 21Z" fill="#347EED"/>
<path d="M6.5625 26.25C6.5625 25.5251 5.97487 24.9375 5.25 24.9375C4.52513 24.9375 3.9375 25.5251 3.9375 26.25V28C3.9375 33.5574 8.44264 38.0625 14 38.0625H15.75C16.4749 38.0625 17.0625 37.4749 17.0625 36.75C17.0625 36.0251 16.4749 35.4375 15.75 35.4375H14C9.89238 35.4375 6.5625 32.1076 6.5625 28V26.25Z" fill="#347EED"/>
<path d="M38.0625 26.25C38.0625 25.5251 37.4749 24.9375 36.75 24.9375C36.0251 24.9375 35.4375 25.5251 35.4375 26.25V28C35.4375 32.1076 32.1076 35.4375 28 35.4375H26.25C25.5251 35.4375 24.9375 36.0251 24.9375 36.75C24.9375 37.4749 25.5251 38.0625 26.25 38.0625H28C33.5574 38.0625 38.0625 33.5574 38.0625 28V26.25Z" fill="#347EED"/>
</svg>
